<svg width="70" height="74" viewBox="0 0 70 74" fill="none" xmlns="http://www.w3.org/2000/svg">
<g opacity="0.2">
<path d="M22.7648 30.6013C27.0084 30.6013 27.0197 24.1021 22.7648 24.1021C18.5211 24.1021 18.5211 30.6013 22.7648 30.6013Z" fill="#FBFBFB"/>
<path d="M25.7085 45.0711C29.9521 45.0711 29.9635 38.5718 25.7085 38.5718C21.4648 38.5718 21.4535 45.0711 25.7085 45.0711Z" fill="#FBFBFB"/>
<path d="M38.4191 35.4282C42.6627 35.4282 42.674 28.929 38.4191 28.929C34.1754 28.929 34.1754 35.4282 38.4191 35.4282Z" fill="#FBFBFB"/>
<path d="M37.4546 19.999C41.6982 19.999 41.7095 13.4998 37.4546 13.4998C33.2109 13.4998 33.1996 19.999 37.4546 19.999Z" fill="#FBFBFB"/>
<path d="M51.1616 26.7441C55.4053 26.7441 55.4166 20.2449 51.1616 20.2449C46.9179 20.2449 46.9066 26.7441 51.1616 26.7441Z" fill="#FBFBFB"/>
<path d="M53.1089 43.1423C57.3525 43.1423 57.3638 36.6431 53.1089 36.6431C48.8652 36.6431 48.8539 43.1423 53.1089 43.1423Z" fill="#FBFBFB"/>
<path d="M38.4191 50.8567C42.6627 50.8567 42.674 44.3574 38.4191 44.3574C34.1754 44.3574 34.1754 50.8567 38.4191 50.8567Z" fill="#FBFBFB"/>
<path d="M29.6166 53.0306C29.2885 53.0306 28.9603 53.0306 28.6321 53.0306C28.1794 53.0083 27.7494 53.1087 27.3647 53.3093C26.9573 53.4431 26.6065 53.6661 26.3009 53.9782C25.9841 54.2681 25.7464 54.6248 25.622 55.0261C25.4183 55.4163 25.3164 55.8288 25.339 56.2747C25.373 56.5645 25.4182 56.8544 25.4522 57.1331C25.6106 57.6793 25.8935 58.1587 26.3009 58.5712C26.5273 58.7384 26.7423 58.9056 26.9686 59.084C27.4778 59.3738 28.0323 59.5299 28.6321 59.5299C28.9603 59.5299 29.2885 59.5299 29.6166 59.5299C30.0693 59.5522 30.4993 59.4518 30.8841 59.2512C31.2915 59.1174 31.6423 58.8945 31.9478 58.5823C32.2647 58.2925 32.5023 57.9357 32.6268 57.5344C32.8305 57.1442 32.9323 56.7318 32.9097 56.2858C32.8758 55.996 32.8305 55.7061 32.7966 55.4274C32.6381 54.8812 32.3552 54.4018 31.9478 53.9894C31.7215 53.8221 31.5065 53.6549 31.2802 53.4766C30.7596 53.1867 30.2051 53.0418 29.6166 53.0306Z" fill="#FBFBFB"/>
<path d="M11.9995 59.5302C16.2431 59.5302 16.2544 53.031 11.9995 53.031C7.75583 53.031 7.74452 59.5302 11.9995 59.5302Z" fill="#FBFBFB"/>
<path d="M4.15574 32.5298C8.3994 32.5298 8.41072 26.0305 4.15574 26.0305C-0.0879204 26.0305 -0.0992368 32.5298 4.15574 32.5298Z" fill="#FBFBFB"/>
<path d="M3.18273 46.9995C7.42637 46.9995 7.43769 40.5002 3.18273 40.5002C-1.06091 40.5002 -1.06091 46.9995 3.18273 46.9995Z" fill="#FBFBFB"/>
<path d="M8.08152 19.0293C12.3252 19.0293 12.3365 12.53 8.08152 12.53C3.83786 12.5412 3.82654 19.0293 8.08152 19.0293Z" fill="#FBFBFB"/>
<path d="M19.8354 11.3152C24.0791 11.3152 24.0904 4.81592 19.8354 4.81592C15.5918 4.82707 15.5805 11.3152 19.8354 11.3152Z" fill="#FBFBFB"/>
<path d="M34.5089 6.49926C38.7526 6.49926 38.7639 0 34.5089 0C30.2653 0 30.2653 6.49926 34.5089 6.49926Z" fill="#FBFBFB"/>
<path d="M51.1616 11.3152C55.4053 11.3152 55.4166 4.81592 51.1616 4.81592C46.9179 4.82707 46.9066 11.3152 51.1616 11.3152Z" fill="#FBFBFB"/>
<path d="M63.8663 26.7441C68.11 26.7441 68.1213 20.2449 63.8663 20.2449C59.6227 20.2449 59.6227 26.7441 63.8663 26.7441Z" fill="#FBFBFB"/>
<path d="M66.81 44.1011C71.0537 44.1011 71.065 37.6018 66.81 37.6018C62.5664 37.6018 62.5551 44.1011 66.81 44.1011Z" fill="#FBFBFB"/>
<path d="M60.9448 59.5302C65.1885 59.5302 65.1998 53.031 60.9448 53.031C56.7011 53.031 56.6898 59.5302 60.9448 59.5302Z" fill="#FBFBFB"/>
<path d="M45.2827 67.2444C49.5263 67.2444 49.5377 60.7451 45.2827 60.7451C41.039 60.7451 41.0277 67.2444 45.2827 67.2444Z" fill="#FBFBFB"/>
<path d="M23.7456 74C27.9892 74 28.0006 67.5007 23.7456 67.5007C19.5019 67.5007 19.4906 74 23.7456 74Z" fill="#FBFBFB"/>
</g>
</svg>
