<svg width="151" height="117" viewBox="0 0 151 117" fill="none" xmlns="http://www.w3.org/2000/svg">
<path d="M1.47446 114.951C7.53655 118.246 14.835 117.353 20.578 113.799C26.8595 109.928 30.7081 103.318 33.6195 96.7468C39.1631 84.3197 45.5841 66.354 31.8049 56.7856C27.2383 53.6093 20.8771 52.3785 15.852 55.2173C10.2087 58.4134 8.41396 65.4012 9.92948 71.3963C13.4989 85.4711 31.8049 89.0444 44.2281 88.4687C58.2069 87.8136 71.9861 82.0368 81.7972 72.0316C91.6879 61.947 97.3313 47.9913 97.5905 33.9363C97.7101 27.3654 96.9923 19.663 93.4627 13.9259C89.9929 8.28806 83.4921 5.82646 77.2107 8.1888C70.8894 10.571 67.0407 16.6257 67.2601 23.3157C67.4994 30.6013 71.7867 36.8148 77.7292 40.7852C89.9531 48.964 107.342 48.7059 120.543 43.2467C133.883 37.728 144.133 26.5317 148.759 12.9333C149.876 9.63797 150.554 6.2632 150.973 2.82887C151.451 -0.962784 145.469 -0.92308 144.99 2.82887C143.575 13.9656 137.632 24.4076 128.918 31.5144C119.685 39.0382 107.162 42.3336 95.377 40.805C89.6539 40.0705 83.6118 38.2044 79.145 34.4723C74.9374 30.9586 72.046 25.2016 73.6612 19.7027C74.8975 15.4545 79.9027 11.9805 84.3895 13.5487C89.3947 15.3155 90.6111 22.1445 91.2293 26.6905C94.3002 49.5397 80.4212 72.2698 58.506 79.7539C48.0967 83.3073 35.7332 83.9624 25.4436 79.6348C20.6977 77.6297 16.171 74.0168 15.4532 68.637C14.8549 64.2895 17.188 59.7435 21.954 59.5846C26.6401 59.4258 31.3861 63.0785 33.101 67.287C35.833 73.9572 33.2606 81.7986 30.8078 88.1312C28.355 94.4242 25.6231 101.253 20.7575 106.097C16.6297 110.226 9.96937 112.827 4.46563 109.829C1.11552 107.963 -1.89558 113.105 1.47446 114.951Z" fill="#ACB0FE"/>
</svg>
