<svg width="91" height="88" viewBox="0 0 91 88" fill="none" xmlns="http://www.w3.org/2000/svg">
<g opacity="0.3">
<path d="M39.1773 1.38889C39.1566 1.39232 39.1359 1.39575 39.1118 1.4026C38.6154 1.46081 38.0603 1.56696 37.4742 1.69365C37.6707 1.79638 37.8914 1.86143 38.1293 1.86143C38.5464 1.85801 38.9188 1.67653 39.1773 1.38889Z" fill="#878787"/>
<path d="M45.4984 1.85768C46.1672 1.85768 46.7257 1.39542 46.8705 0.775641C45.9604 0.737975 45.0468 0.734551 44.1263 0.775641C44.2746 1.39542 44.8296 1.85768 45.4984 1.85768Z" fill="#878787"/>
<path d="M52.8711 1.8578C53.0779 1.8578 53.271 1.81329 53.4468 1.73454C52.9021 1.59757 52.354 1.47429 51.8024 1.36472C52.061 1.66605 52.4402 1.8578 52.8711 1.8578Z" fill="#878787"/>
<path d="M23.3931 6.37461C22.814 6.37461 22.321 6.72045 22.1003 7.21354C22.5589 6.92591 23.0243 6.64855 23.5 6.38489C23.4621 6.38146 23.4276 6.37461 23.3931 6.37461Z" fill="#878787"/>
<path d="M23.3912 9.17877C24.1704 9.17877 24.8047 8.55215 24.8047 7.77486C24.8047 7.03523 24.229 6.43942 23.4981 6.38121C23.0224 6.64487 22.5569 6.92223 22.0984 7.20986C22.0226 7.38449 21.9778 7.57283 21.9778 7.77486C21.9778 8.55215 22.6121 9.17877 23.3912 9.17877Z" fill="#878787"/>
<path d="M30.7589 6.37461C29.9798 6.37461 29.3455 7.00125 29.3455 7.77854C29.3455 8.55583 29.9763 9.18245 30.7589 9.18245C31.538 9.18245 32.1724 8.55583 32.1724 7.77854C32.1724 7.00125 31.5415 6.37461 30.7589 6.37461Z" fill="#878787"/>
<path d="M38.1306 6.37461C37.3514 6.37461 36.7171 7.00125 36.7171 7.77854C36.7171 8.55583 37.348 9.18245 38.1306 9.18245C38.9097 9.18245 39.544 8.55583 39.544 7.77854C39.544 7.00125 38.9097 6.37461 38.1306 6.37461Z" fill="#878787"/>
<path d="M45.4983 6.37461C44.7191 6.37461 44.0848 7.00125 44.0848 7.77854C44.0848 8.55583 44.7157 9.18245 45.4983 9.18245C46.2774 9.18245 46.9117 8.55583 46.9117 7.77854C46.9117 7.00125 46.2808 6.37461 45.4983 6.37461Z" fill="#878787"/>
<path d="M52.8699 6.37461C52.0908 6.37461 51.4564 7.00125 51.4564 7.77854C51.4564 8.55583 52.0873 9.18245 52.8699 9.18245C53.649 9.18245 54.2834 8.55583 54.2834 7.77854C54.2834 7.00125 53.649 6.37461 52.8699 6.37461Z" fill="#878787"/>
<path d="M60.2376 6.37461C59.4585 6.37461 58.8241 7.00125 58.8241 7.77854C58.8241 8.55583 59.455 9.18245 60.2376 9.18245C61.0202 9.18245 61.651 8.55583 61.651 7.77854C61.651 7.00125 61.0202 6.37461 60.2376 6.37461Z" fill="#878787"/>
<path d="M67.6092 9.17896C67.8643 9.17896 68.0988 9.10706 68.3022 8.99063C67.6196 8.48043 66.9266 7.98735 66.2233 7.51824C66.2061 7.60384 66.1958 7.68944 66.1958 7.77505C66.1958 8.55234 66.8301 9.17896 67.6092 9.17896Z" fill="#878787"/>
<path d="M16.0196 13.6919C15.2405 13.6919 14.6061 14.3186 14.6061 15.0959C14.6061 15.8697 15.237 16.4998 16.0196 16.4998C16.7987 16.4998 17.433 15.8732 17.433 15.0959C17.433 14.322 16.7987 13.6919 16.0196 13.6919Z" fill="#878787"/>
<path d="M23.3912 13.6919C22.6121 13.6919 21.9778 14.3186 21.9778 15.0959C21.9778 15.8697 22.6087 16.4998 23.3912 16.4998C24.1704 16.4998 24.8047 15.8732 24.8047 15.0959C24.8012 14.322 24.1704 13.6919 23.3912 13.6919Z" fill="#878787"/>
<path d="M30.7589 13.6919C29.9798 13.6919 29.3455 14.3186 29.3455 15.0959C29.3455 15.8697 29.9763 16.4998 30.7589 16.4998C31.538 16.4998 32.1724 15.8732 32.1724 15.0959C32.1724 14.322 31.5415 13.6919 30.7589 13.6919Z" fill="#878787"/>
<path d="M38.1306 13.6919C37.3514 13.6919 36.7171 14.3186 36.7171 15.0959C36.7171 15.8697 37.348 16.4998 38.1306 16.4998C38.9097 16.4998 39.544 15.8732 39.544 15.0959C39.5406 14.322 38.9097 13.6919 38.1306 13.6919Z" fill="#878787"/>
<path d="M45.4983 13.6919C44.7191 13.6919 44.0848 14.3186 44.0848 15.0959C44.0848 15.8697 44.7157 16.4998 45.4983 16.4998C46.2774 16.4998 46.9117 15.8732 46.9117 15.0959C46.9117 14.322 46.2808 13.6919 45.4983 13.6919Z" fill="#878787"/>
<path d="M52.8699 13.6919C52.0908 13.6919 51.4564 14.3186 51.4564 15.0959C51.4564 15.8697 52.0873 16.4998 52.8699 16.4998C53.649 16.4998 54.2834 15.8732 54.2834 15.0959C54.2834 14.322 53.649 13.6919 52.8699 13.6919Z" fill="#878787"/>
<path d="M60.2376 13.6919C59.4585 13.6919 58.8241 14.3186 58.8241 15.0959C58.8241 15.8697 59.455 16.4998 60.2376 16.4998C61.0202 16.4998 61.651 15.8732 61.651 15.0959C61.651 14.322 61.0202 13.6919 60.2376 13.6919Z" fill="#878787"/>
<path d="M67.6092 13.6919C66.8301 13.6919 66.1958 14.3186 66.1958 15.0959C66.1958 15.8697 66.8267 16.4998 67.6092 16.4998C68.3884 16.4998 69.0227 15.8732 69.0227 15.0959C69.0227 14.322 68.3884 13.6919 67.6092 13.6919Z" fill="#878787"/>
<path d="M73.5654 15.096C73.5654 15.8698 74.1963 16.4999 74.9789 16.4999C75.3857 16.4999 75.7477 16.3253 76.0062 16.0547C75.3822 15.3631 74.741 14.6851 74.0826 14.0242C73.7688 14.2776 73.5654 14.6611 73.5654 15.096Z" fill="#878787"/>
<path d="M10.0614 22.4136C10.0614 21.8075 9.67184 21.2973 9.13059 21.0987C8.66863 21.8931 8.22391 22.7012 7.79987 23.5265C8.03774 23.7045 8.33077 23.8141 8.65138 23.8141C9.43051 23.8175 10.0614 23.1909 10.0614 22.4136Z" fill="#878787"/>
<path d="M16.0196 21.013C15.2405 21.013 14.6061 21.6397 14.6061 22.417C14.6061 23.1908 15.237 23.8209 16.0196 23.8209C16.7987 23.8209 17.433 23.1943 17.433 22.417C17.433 21.6397 16.7987 21.013 16.0196 21.013Z" fill="#878787"/>
<path d="M23.3912 21.013C22.6121 21.013 21.9778 21.6397 21.9778 22.417C21.9778 23.1908 22.6087 23.8209 23.3912 23.8209C24.1704 23.8209 24.8047 23.1943 24.8047 22.417C24.8012 21.6397 24.1704 21.013 23.3912 21.013Z" fill="#878787"/>
<path d="M30.7589 21.013C29.9798 21.013 29.3455 21.6397 29.3455 22.417C29.3455 23.1908 29.9763 23.8209 30.7589 23.8209C31.538 23.8209 32.1724 23.1943 32.1724 22.417C32.1724 21.6397 31.5415 21.013 30.7589 21.013Z" fill="#878787"/>
<path d="M38.1306 21.013C37.3514 21.013 36.7171 21.6397 36.7171 22.417C36.7171 23.1908 37.348 23.8209 38.1306 23.8209C38.9097 23.8209 39.544 23.1943 39.544 22.417C39.5406 21.6397 38.9097 21.013 38.1306 21.013Z" fill="#878787"/>
<path d="M45.4983 21.013C44.7191 21.013 44.0848 21.6397 44.0848 22.417C44.0848 23.1908 44.7157 23.8209 45.4983 23.8209C46.2774 23.8209 46.9117 23.1943 46.9117 22.417C46.9117 21.6397 46.2808 21.013 45.4983 21.013Z" fill="#878787"/>
<path d="M52.8699 21.013C52.0908 21.013 51.4564 21.6397 51.4564 22.417C51.4564 23.1908 52.0873 23.8209 52.8699 23.8209C53.649 23.8209 54.2834 23.1943 54.2834 22.417C54.2834 21.6397 53.649 21.013 52.8699 21.013Z" fill="#878787"/>
<path d="M60.2376 21.013C59.4585 21.013 58.8241 21.6397 58.8241 22.417C58.8241 23.1908 59.455 23.8209 60.2376 23.8209C61.0202 23.8209 61.651 23.1943 61.651 22.417C61.651 21.6397 61.0202 21.013 60.2376 21.013Z" fill="#878787"/>
<path d="M67.6092 21.013C66.8301 21.013 66.1958 21.6397 66.1958 22.417C66.1958 23.1908 66.8267 23.8209 67.6092 23.8209C68.3884 23.8209 69.0227 23.1943 69.0227 22.417C69.0227 21.6397 68.3884 21.013 67.6092 21.013Z" fill="#878787"/>
<path d="M74.9749 21.013C74.1958 21.013 73.5615 21.6397 73.5615 22.417C73.5615 23.1908 74.1924 23.8209 74.9749 23.8209C75.7541 23.8209 76.3884 23.1943 76.3884 22.417C76.3884 21.6397 75.7575 21.013 74.9749 21.013Z" fill="#878787"/>
<path d="M81.8389 23.7182C81.5458 23.2593 81.2494 22.8039 80.946 22.3519C80.946 22.3725 80.9391 22.393 80.9391 22.4136C80.9356 23.0094 81.3114 23.5162 81.8389 23.7182Z" fill="#878787"/>
<path d="M8.6519 31.138C9.43253 31.138 10.0654 30.5094 10.0654 29.7341C10.0654 28.9587 9.43253 28.3301 8.6519 28.3301C7.87127 28.3301 7.23845 28.9587 7.23845 29.7341C7.23845 30.5094 7.87127 31.138 8.6519 31.138Z" fill="#878787"/>
<path d="M16.0196 28.3301C15.2405 28.3301 14.6061 28.9568 14.6061 29.7341C14.6061 30.5114 15.237 31.138 16.0196 31.138C16.7987 31.138 17.433 30.5114 17.433 29.7341C17.433 28.9568 16.7987 28.3301 16.0196 28.3301Z" fill="#878787"/>
<path d="M23.3912 28.3301C22.6121 28.3301 21.9778 28.9568 21.9778 29.7341C21.9778 30.5114 22.6087 31.138 23.3912 31.138C24.1704 31.138 24.8047 30.5114 24.8047 29.7341C24.8047 28.9568 24.1704 28.3301 23.3912 28.3301Z" fill="#878787"/>
<path d="M30.7589 28.3301C29.9798 28.3301 29.3455 28.9568 29.3455 29.7341C29.3455 30.5114 29.9763 31.138 30.7589 31.138C31.538 31.138 32.1724 30.5114 32.1724 29.7341C32.1724 28.9568 31.5415 28.3301 30.7589 28.3301Z" fill="#878787"/>
<path d="M38.1306 28.3301C37.3514 28.3301 36.7171 28.9568 36.7171 29.7341C36.7171 30.5114 37.348 31.138 38.1306 31.138C38.9097 31.138 39.544 30.5114 39.544 29.7341C39.544 28.9568 38.9097 28.3301 38.1306 28.3301Z" fill="#878787"/>
<path d="M45.4983 31.138C46.2789 31.138 46.9117 30.5094 46.9117 29.7341C46.9117 28.9587 46.2789 28.3301 45.4983 28.3301C44.7176 28.3301 44.0848 28.9587 44.0848 29.7341C44.0848 30.5094 44.7176 31.138 45.4983 31.138Z" fill="#878787"/>
<path d="M52.8699 28.3301C52.0908 28.3301 51.4564 28.9568 51.4564 29.7341C51.4564 30.5114 52.0873 31.138 52.8699 31.138C53.649 31.138 54.2834 30.5114 54.2834 29.7341C54.2834 28.9568 53.649 28.3301 52.8699 28.3301Z" fill="#878787"/>
<path d="M60.2376 31.138C61.0182 31.138 61.651 30.5094 61.651 29.7341C61.651 28.9587 61.0182 28.3301 60.2376 28.3301C59.457 28.3301 58.8241 28.9587 58.8241 29.7341C58.8241 30.5094 59.457 31.138 60.2376 31.138Z" fill="#878787"/>
<path d="M67.6092 28.3301C66.8301 28.3301 66.1958 28.9568 66.1958 29.7341C66.1958 30.5114 66.8267 31.138 67.6092 31.138C68.3884 31.138 69.0227 30.5114 69.0227 29.7341C69.0227 28.9568 68.3884 28.3301 67.6092 28.3301Z" fill="#878787"/>
<path d="M74.9749 28.3301C74.1958 28.3301 73.5615 28.9568 73.5615 29.7341C73.5615 30.5114 74.1924 31.138 74.9749 31.138C75.7541 31.138 76.3884 30.5114 76.3884 29.7341C76.3884 28.9568 75.7575 28.3301 74.9749 28.3301Z" fill="#878787"/>
<path d="M82.3486 31.138C83.1292 31.138 83.762 30.5094 83.762 29.7341C83.762 28.9587 83.1292 28.3301 82.3486 28.3301C81.5679 28.3301 80.9351 28.9587 80.9351 29.7341C80.9351 30.5094 81.5679 31.138 82.3486 31.138Z" fill="#878787"/>
<path d="M8.6519 35.6515C7.87277 35.6515 7.23845 36.2781 7.23845 37.0554C7.23845 37.8293 7.86932 38.4593 8.6519 38.4593C9.43103 38.4593 10.0654 37.8327 10.0654 37.0554C10.0619 36.2781 9.43103 35.6515 8.6519 35.6515Z" fill="#878787"/>
<path d="M16.0196 35.6515C15.2405 35.6515 14.6061 36.2781 14.6061 37.0554C14.6061 37.8293 15.237 38.4593 16.0196 38.4593C16.7987 38.4593 17.433 37.8327 17.433 37.0554C17.433 36.2781 16.7987 35.6515 16.0196 35.6515Z" fill="#878787"/>
<path d="M23.3912 35.6515C22.6121 35.6515 21.9778 36.2781 21.9778 37.0554C21.9778 37.8293 22.6087 38.4593 23.3912 38.4593C24.1704 38.4593 24.8047 37.8327 24.8047 37.0554C24.8012 36.2781 24.1704 35.6515 23.3912 35.6515Z" fill="#878787"/>
<path d="M30.7589 35.6515C29.9798 35.6515 29.3455 36.2781 29.3455 37.0554C29.3455 37.8293 29.9763 38.4593 30.7589 38.4593C31.538 38.4593 32.1724 37.8327 32.1724 37.0554C32.1724 36.2781 31.5415 35.6515 30.7589 35.6515Z" fill="#878787"/>
<path d="M38.1306 35.6515C37.3514 35.6515 36.7171 36.2781 36.7171 37.0554C36.7171 37.8293 37.348 38.4593 38.1306 38.4593C38.9097 38.4593 39.544 37.8327 39.544 37.0554C39.5406 36.2781 38.9097 35.6515 38.1306 35.6515Z" fill="#878787"/>
<path d="M45.4983 35.6515C44.7191 35.6515 44.0848 36.2781 44.0848 37.0554C44.0848 37.8293 44.7157 38.4593 45.4983 38.4593C46.2774 38.4593 46.9117 37.8327 46.9117 37.0554C46.9117 36.2781 46.2808 35.6515 45.4983 35.6515Z" fill="#878787"/>
<path d="M52.8699 35.6515C52.0908 35.6515 51.4564 36.2781 51.4564 37.0554C51.4564 37.8293 52.0873 38.4593 52.8699 38.4593C53.649 38.4593 54.2834 37.8327 54.2834 37.0554C54.2834 36.2781 53.649 35.6515 52.8699 35.6515Z" fill="#878787"/>
<path d="M60.2376 35.6515C59.4585 35.6515 58.8241 36.2781 58.8241 37.0554C58.8241 37.8293 59.455 38.4593 60.2376 38.4593C61.0202 38.4593 61.651 37.8327 61.651 37.0554C61.651 36.2781 61.0202 35.6515 60.2376 35.6515Z" fill="#878787"/>
<path d="M67.6092 35.6515C66.8301 35.6515 66.1958 36.2781 66.1958 37.0554C66.1958 37.8293 66.8267 38.4593 67.6092 38.4593C68.3884 38.4593 69.0227 37.8327 69.0227 37.0554C69.0227 36.2781 68.3884 35.6515 67.6092 35.6515Z" fill="#878787"/>
<path d="M74.9749 35.6515C74.1958 35.6515 73.5615 36.2781 73.5615 37.0554C73.5615 37.8293 74.1924 38.4593 74.9749 38.4593C75.7541 38.4593 76.3884 37.8327 76.3884 37.0554C76.3884 36.2781 75.7575 35.6515 74.9749 35.6515Z" fill="#878787"/>
<path d="M82.3486 35.6515C81.5694 35.6515 80.9351 36.2781 80.9351 37.0554C80.9351 37.8293 81.566 38.4593 82.3486 38.4593C83.1277 38.4593 83.762 37.8327 83.762 37.0554C83.762 36.2781 83.1277 35.6515 82.3486 35.6515Z" fill="#878787"/>
<path d="M2.69437 44.3727C2.69437 43.6947 2.20827 43.1263 1.56359 42.9996C1.34985 43.9173 1.17403 44.835 1.04302 45.7527C1.12231 45.7664 1.20161 45.7766 1.28435 45.7766C2.06003 45.7766 2.69437 45.1466 2.69437 44.3727Z" fill="#878787"/>
<path d="M8.6519 42.9686C7.87277 42.9686 7.23845 43.5952 7.23845 44.3725C7.23845 45.1464 7.86932 45.7764 8.6519 45.7764C9.43103 45.7764 10.0654 45.1498 10.0654 44.3725C10.0619 43.5987 9.43103 42.9686 8.6519 42.9686Z" fill="#878787"/>
<path d="M16.0196 42.9686C15.2405 42.9686 14.6061 43.5952 14.6061 44.3725C14.6061 45.1464 15.237 45.7764 16.0196 45.7764C16.7987 45.7764 17.433 45.1498 17.433 44.3725C17.433 43.5987 16.7987 42.9686 16.0196 42.9686Z" fill="#878787"/>
<path d="M23.3912 42.9686C22.6121 42.9686 21.9778 43.5952 21.9778 44.3725C21.9778 45.1464 22.6087 45.7764 23.3912 45.7764C24.1704 45.7764 24.8047 45.1498 24.8047 44.3725C24.8012 43.5987 24.1704 42.9686 23.3912 42.9686Z" fill="#878787"/>
<path d="M30.7589 42.9686C29.9798 42.9686 29.3455 43.5952 29.3455 44.3725C29.3455 45.1464 29.9763 45.7764 30.7589 45.7764C31.538 45.7764 32.1724 45.1498 32.1724 44.3725C32.1724 43.5987 31.5415 42.9686 30.7589 42.9686Z" fill="#878787"/>
<path d="M38.1306 42.9686C37.3514 42.9686 36.7171 43.5952 36.7171 44.3725C36.7171 45.1464 37.348 45.7764 38.1306 45.7764C38.9097 45.7764 39.544 45.1498 39.544 44.3725C39.5406 43.5987 38.9097 42.9686 38.1306 42.9686Z" fill="#878787"/>
<path d="M45.4983 42.9686C44.7191 42.9686 44.0848 43.5952 44.0848 44.3725C44.0848 45.1464 44.7157 45.7764 45.4983 45.7764C46.2774 45.7764 46.9117 45.1498 46.9117 44.3725C46.9117 43.5987 46.2808 42.9686 45.4983 42.9686Z" fill="#878787"/>
<path d="M52.8699 42.9686C52.0908 42.9686 51.4564 43.5952 51.4564 44.3725C51.4564 45.1464 52.0873 45.7764 52.8699 45.7764C53.649 45.7764 54.2834 45.1498 54.2834 44.3725C54.2834 43.5987 53.649 42.9686 52.8699 42.9686Z" fill="#878787"/>
<path d="M60.2376 42.9686C59.4585 42.9686 58.8241 43.5952 58.8241 44.3725C58.8241 45.1464 59.455 45.7764 60.2376 45.7764C61.0202 45.7764 61.651 45.1498 61.651 44.3725C61.651 43.5987 61.0202 42.9686 60.2376 42.9686Z" fill="#878787"/>
<path d="M67.6092 42.9686C66.8301 42.9686 66.1958 43.5952 66.1958 44.3725C66.1958 45.1464 66.8267 45.7764 67.6092 45.7764C68.3884 45.7764 69.0227 45.1498 69.0227 44.3725C69.0227 43.5987 68.3884 42.9686 67.6092 42.9686Z" fill="#878787"/>
<path d="M74.9749 42.9686C74.1958 42.9686 73.5615 43.5952 73.5615 44.3725C73.5615 45.1464 74.1924 45.7764 74.9749 45.7764C75.7541 45.7764 76.3884 45.1498 76.3884 44.3725C76.3884 43.5987 75.7575 42.9686 74.9749 42.9686Z" fill="#878787"/>
<path d="M82.3486 42.9686C81.5694 42.9686 80.9351 43.5952 80.9351 44.3725C80.9351 45.1464 81.566 45.7764 82.3486 45.7764C83.1277 45.7764 83.762 45.1498 83.762 44.3725C83.762 43.5987 83.1277 42.9686 82.3486 42.9686Z" fill="#878787"/>
<path d="M88.3048 44.3727C88.3048 45.1466 88.9356 45.7766 89.7182 45.7766C89.7872 45.7766 89.8561 45.7663 89.9216 45.7561C89.7906 44.8247 89.6389 43.9036 89.4597 42.9962C88.8012 43.116 88.3048 43.6844 88.3048 44.3727Z" fill="#878787"/>
<path d="M2.69518 51.6904C2.69518 50.9165 2.06429 50.2865 1.28171 50.2865C1.07831 50.2865 0.885264 50.331 0.712891 50.4063C0.712891 51.2761 0.747361 52.1424 0.81631 53.0053C0.961104 53.0566 1.11623 53.0909 1.28171 53.0909C2.06084 53.0943 2.69518 52.4677 2.69518 51.6904Z" fill="#878787"/>
<path d="M8.6519 50.2899C7.87277 50.2899 7.23845 50.9165 7.23845 51.6938C7.23845 52.4711 7.86932 53.0977 8.6519 53.0977C9.43103 53.0977 10.0654 52.4711 10.0654 51.6938C10.0654 50.9165 9.43103 50.2899 8.6519 50.2899Z" fill="#878787"/>
<path d="M16.0196 50.2899C15.2405 50.2899 14.6061 50.9165 14.6061 51.6938C14.6061 52.4711 15.237 53.0977 16.0196 53.0977C16.7987 53.0977 17.433 52.4711 17.433 51.6938C17.433 50.9165 16.7987 50.2899 16.0196 50.2899Z" fill="#878787"/>
<path d="M23.3912 50.2899C22.6121 50.2899 21.9778 50.9165 21.9778 51.6938C21.9778 52.4711 22.6087 53.0977 23.3912 53.0977C24.1704 53.0977 24.8047 52.4711 24.8047 51.6938C24.8047 50.9165 24.1704 50.2899 23.3912 50.2899Z" fill="#878787"/>
<path d="M30.7589 50.2899C29.9798 50.2899 29.3455 50.9165 29.3455 51.6938C29.3455 52.4711 29.9763 53.0977 30.7589 53.0977C31.538 53.0977 32.1724 52.4711 32.1724 51.6938C32.1724 50.9165 31.5415 50.2899 30.7589 50.2899Z" fill="#878787"/>
<path d="M38.1306 50.2899C37.3514 50.2899 36.7171 50.9165 36.7171 51.6938C36.7171 52.4711 37.348 53.0977 38.1306 53.0977C38.9097 53.0977 39.544 52.4711 39.544 51.6938C39.544 50.9165 38.9097 50.2899 38.1306 50.2899Z" fill="#878787"/>
<path d="M45.4983 50.2899C44.7191 50.2899 44.0848 50.9165 44.0848 51.6938C44.0848 52.4711 44.7157 53.0977 45.4983 53.0977C46.2774 53.0977 46.9117 52.4711 46.9117 51.6938C46.9117 50.9165 46.2808 50.2899 45.4983 50.2899Z" fill="#878787"/>
<path d="M52.8699 50.2899C52.0908 50.2899 51.4564 50.9165 51.4564 51.6938C51.4564 52.4711 52.0873 53.0977 52.8699 53.0977C53.649 53.0977 54.2834 52.4711 54.2834 51.6938C54.2834 50.9165 53.649 50.2899 52.8699 50.2899Z" fill="#878787"/>
<path d="M60.2376 50.2899C59.4585 50.2899 58.8241 50.9165 58.8241 51.6938C58.8241 52.4711 59.455 53.0977 60.2376 53.0977C61.0202 53.0977 61.651 52.4711 61.651 51.6938C61.651 50.9165 61.0202 50.2899 60.2376 50.2899Z" fill="#878787"/>
<path d="M67.6092 50.2899C66.8301 50.2899 66.1958 50.9165 66.1958 51.6938C66.1958 52.4711 66.8267 53.0977 67.6092 53.0977C68.3884 53.0977 69.0227 52.4711 69.0227 51.6938C69.0227 50.9165 68.3884 50.2899 67.6092 50.2899Z" fill="#878787"/>
<path d="M74.9749 50.2899C74.1958 50.2899 73.5615 50.9165 73.5615 51.6938C73.5615 52.4711 74.1924 53.0977 74.9749 53.0977C75.7541 53.0977 76.3884 52.4711 76.3884 51.6938C76.3884 50.9165 75.7575 50.2899 74.9749 50.2899Z" fill="#878787"/>
<path d="M82.3486 50.2899C81.5694 50.2899 80.9351 50.9165 80.9351 51.6938C80.9351 52.4711 81.566 53.0977 82.3486 53.0977C83.1277 53.0977 83.762 52.4711 83.762 51.6938C83.762 50.9165 83.1277 50.2899 82.3486 50.2899Z" fill="#878787"/>
<path d="M88.3048 51.6904C88.3048 52.4643 88.9356 53.0943 89.7182 53.0943C89.8803 53.0943 90.0319 53.0601 90.1767 53.0121C90.2526 52.1561 90.2905 51.2898 90.2871 50.4097C90.1112 50.331 89.9182 50.2865 89.7148 50.2865C88.9357 50.2899 88.3048 50.9165 88.3048 51.6904Z" fill="#878787"/>
<path d="M2.69401 59.0111C2.69401 58.316 2.18034 57.7407 1.51153 57.6311C1.6977 58.4632 1.91144 59.2885 2.15621 60.1034C2.48027 59.8466 2.69401 59.4562 2.69401 59.0111Z" fill="#878787"/>
<path d="M8.6519 57.607C7.87277 57.607 7.23845 58.2337 7.23845 59.011C7.23845 59.7848 7.86932 60.4149 8.6519 60.4149C9.43103 60.4149 10.0654 59.7883 10.0654 59.011C10.0619 58.2371 9.43103 57.607 8.6519 57.607Z" fill="#878787"/>
<path d="M16.0196 57.607C15.2405 57.607 14.6061 58.2337 14.6061 59.011C14.6061 59.7848 15.237 60.4149 16.0196 60.4149C16.7987 60.4149 17.433 59.7883 17.433 59.011C17.433 58.2371 16.7987 57.607 16.0196 57.607Z" fill="#878787"/>
<path d="M23.3912 57.607C22.6121 57.607 21.9778 58.2337 21.9778 59.011C21.9778 59.7848 22.6087 60.4149 23.3912 60.4149C24.1704 60.4149 24.8047 59.7883 24.8047 59.011C24.8012 58.2371 24.1704 57.607 23.3912 57.607Z" fill="#878787"/>
<path d="M30.7589 57.607C29.9798 57.607 29.3455 58.2337 29.3455 59.011C29.3455 59.7848 29.9763 60.4149 30.7589 60.4149C31.538 60.4149 32.1724 59.7883 32.1724 59.011C32.1724 58.2371 31.5415 57.607 30.7589 57.607Z" fill="#878787"/>
<path d="M38.1306 57.607C37.3514 57.607 36.7171 58.2337 36.7171 59.011C36.7171 59.7848 37.348 60.4149 38.1306 60.4149C38.9097 60.4149 39.544 59.7883 39.544 59.011C39.5406 58.2371 38.9097 57.607 38.1306 57.607Z" fill="#878787"/>
<path d="M45.4983 57.607C44.7191 57.607 44.0848 58.2337 44.0848 59.011C44.0848 59.7848 44.7157 60.4149 45.4983 60.4149C46.2774 60.4149 46.9117 59.7883 46.9117 59.011C46.9117 58.2371 46.2808 57.607 45.4983 57.607Z" fill="#878787"/>
<path d="M52.8699 57.607C52.0908 57.607 51.4564 58.2337 51.4564 59.011C51.4564 59.7848 52.0873 60.4149 52.8699 60.4149C53.649 60.4149 54.2834 59.7883 54.2834 59.011C54.2834 58.2371 53.649 57.607 52.8699 57.607Z" fill="#878787"/>
<path d="M60.2376 57.607C59.4585 57.607 58.8241 58.2337 58.8241 59.011C58.8241 59.7848 59.455 60.4149 60.2376 60.4149C61.0202 60.4149 61.651 59.7883 61.651 59.011C61.651 58.2371 61.0202 57.607 60.2376 57.607Z" fill="#878787"/>
<path d="M67.6072 57.607C66.8281 57.607 66.1938 58.2337 66.1938 59.011C66.1938 59.7848 66.8247 60.4149 67.6072 60.4149C68.3864 60.4149 69.0207 59.7883 69.0207 59.011C69.0207 58.2371 68.3864 57.607 67.6072 57.607Z" fill="#878787"/>
<path d="M74.9749 57.607C74.1958 57.607 73.5615 58.2337 73.5615 59.011C73.5615 59.7848 74.1924 60.4149 74.9749 60.4149C75.7541 60.4149 76.3884 59.7883 76.3884 59.011C76.3884 58.2371 75.7575 57.607 74.9749 57.607Z" fill="#878787"/>
<path d="M82.3486 57.607C81.5694 57.607 80.9351 58.2337 80.9351 59.011C80.9351 59.7848 81.566 60.4149 82.3486 60.4149C83.1277 60.4149 83.762 59.7883 83.762 59.011C83.762 58.2371 83.1277 57.607 82.3486 57.607Z" fill="#878787"/>
<path d="M88.3048 59.0115C88.3048 59.3916 88.4599 59.7374 88.7081 59.9908C88.9702 59.2204 89.1977 58.4396 89.3976 57.6487C88.7736 57.7925 88.3048 58.3472 88.3048 59.0115Z" fill="#878787"/>
<path d="M8.6519 64.9284C7.87277 64.9284 7.23845 65.555 7.23845 66.3323C7.23845 67.1062 7.86932 67.7362 8.6519 67.7362C9.43103 67.7362 10.0654 67.1096 10.0654 66.3323C10.0619 65.555 9.43103 64.9284 8.6519 64.9284Z" fill="#878787"/>
<path d="M16.0196 64.9284C15.2405 64.9284 14.6061 65.555 14.6061 66.3323C14.6061 67.1062 15.237 67.7362 16.0196 67.7362C16.7987 67.7362 17.433 67.1096 17.433 66.3323C17.433 65.555 16.7987 64.9284 16.0196 64.9284Z" fill="#878787"/>
<path d="M23.3912 64.9284C22.6121 64.9284 21.9778 65.555 21.9778 66.3323C21.9778 67.1062 22.6087 67.7362 23.3912 67.7362C24.1704 67.7362 24.8047 67.1096 24.8047 66.3323C24.8012 65.555 24.1704 64.9284 23.3912 64.9284Z" fill="#878787"/>
<path d="M30.7589 64.9284C29.9798 64.9284 29.3455 65.555 29.3455 66.3323C29.3455 67.1062 29.9763 67.7362 30.7589 67.7362C31.538 67.7362 32.1724 67.1096 32.1724 66.3323C32.1724 65.555 31.5415 64.9284 30.7589 64.9284Z" fill="#878787"/>
<path d="M38.1306 64.9284C37.3514 64.9284 36.7171 65.555 36.7171 66.3323C36.7171 67.1062 37.348 67.7362 38.1306 67.7362C38.9097 67.7362 39.544 67.1096 39.544 66.3323C39.5406 65.555 38.9097 64.9284 38.1306 64.9284Z" fill="#878787"/>
<path d="M45.4983 64.9284C44.7191 64.9284 44.0848 65.555 44.0848 66.3323C44.0848 67.1062 44.7157 67.7362 45.4983 67.7362C46.2774 67.7362 46.9117 67.1096 46.9117 66.3323C46.9117 65.555 46.2808 64.9284 45.4983 64.9284Z" fill="#878787"/>
<path d="M52.8699 64.9284C52.0908 64.9284 51.4564 65.555 51.4564 66.3323C51.4564 67.1062 52.0873 67.7362 52.8699 67.7362C53.649 67.7362 54.2834 67.1096 54.2834 66.3323C54.2834 65.555 53.649 64.9284 52.8699 64.9284Z" fill="#878787"/>
<path d="M60.2376 64.9284C59.4585 64.9284 58.8241 65.555 58.8241 66.3323C58.8241 67.1062 59.455 67.7362 60.2376 67.7362C61.0202 67.7362 61.651 67.1096 61.651 66.3323C61.651 65.555 61.0202 64.9284 60.2376 64.9284Z" fill="#878787"/>
<path d="M67.6092 64.9284C66.8301 64.9284 66.1958 65.555 66.1958 66.3323C66.1958 67.1062 66.8267 67.7362 67.6092 67.7362C68.3884 67.7362 69.0227 67.1096 69.0227 66.3323C69.0227 65.555 68.3884 64.9284 67.6092 64.9284Z" fill="#878787"/>
<path d="M74.9749 64.9284C74.1958 64.9284 73.5615 65.555 73.5615 66.3323C73.5615 67.1062 74.1924 67.7362 74.9749 67.7362C75.7541 67.7362 76.3884 67.1096 76.3884 66.3323C76.3884 65.555 75.7575 64.9284 74.9749 64.9284Z" fill="#878787"/>
<path d="M82.3486 64.9284C81.5694 64.9284 80.9351 65.555 80.9351 66.3323C80.9351 67.1062 81.566 67.7362 82.3486 67.7362C83.1277 67.7362 83.762 67.1096 83.762 66.3323C83.762 65.555 83.1277 64.9284 82.3486 64.9284Z" fill="#878787"/>
<path d="M8.65292 72.2455C8.60811 72.2455 8.57019 72.2558 8.52537 72.2592C9.00112 72.8619 9.4941 73.4474 10.0078 74.0226C10.0423 73.9028 10.0629 73.7795 10.0629 73.6494C10.0629 72.8755 9.43205 72.2455 8.65292 72.2455Z" fill="#878787"/>
<path d="M16.0196 72.2455C15.2405 72.2455 14.6061 72.8721 14.6061 73.6494C14.6061 74.4233 15.237 75.0533 16.0196 75.0533C16.7987 75.0533 17.433 74.4267 17.433 73.6494C17.433 72.8755 16.7987 72.2455 16.0196 72.2455Z" fill="#878787"/>
<path d="M23.3912 72.2455C22.6121 72.2455 21.9778 72.8721 21.9778 73.6494C21.9778 74.4233 22.6087 75.0533 23.3912 75.0533C24.1704 75.0533 24.8047 74.4267 24.8047 73.6494C24.8012 72.8755 24.1704 72.2455 23.3912 72.2455Z" fill="#878787"/>
<path d="M30.7589 72.2455C29.9798 72.2455 29.3455 72.8721 29.3455 73.6494C29.3455 74.4233 29.9763 75.0533 30.7589 75.0533C31.538 75.0533 32.1724 74.4267 32.1724 73.6494C32.1724 72.8755 31.5415 72.2455 30.7589 72.2455Z" fill="#878787"/>
<path d="M38.1306 72.2455C37.3514 72.2455 36.7171 72.8721 36.7171 73.6494C36.7171 74.4233 37.348 75.0533 38.1306 75.0533C38.9097 75.0533 39.544 74.4267 39.544 73.6494C39.5406 72.8755 38.9097 72.2455 38.1306 72.2455Z" fill="#878787"/>
<path d="M45.4983 72.2455C44.7191 72.2455 44.0848 72.8721 44.0848 73.6494C44.0848 74.4233 44.7157 75.0533 45.4983 75.0533C46.2774 75.0533 46.9117 74.4267 46.9117 73.6494C46.9117 72.8755 46.2808 72.2455 45.4983 72.2455Z" fill="#878787"/>
<path d="M52.8699 72.2455C52.0908 72.2455 51.4564 72.8721 51.4564 73.6494C51.4564 74.4233 52.0873 75.0533 52.8699 75.0533C53.649 75.0533 54.2834 74.4267 54.2834 73.6494C54.2834 72.8755 53.649 72.2455 52.8699 72.2455Z" fill="#878787"/>
<path d="M60.2376 72.2455C59.4585 72.2455 58.8241 72.8721 58.8241 73.6494C58.8241 74.4233 59.455 75.0533 60.2376 75.0533C61.0202 75.0533 61.651 74.4267 61.651 73.6494C61.651 72.8755 61.0202 72.2455 60.2376 72.2455Z" fill="#878787"/>
<path d="M67.6092 72.2455C66.8301 72.2455 66.1958 72.8721 66.1958 73.6494C66.1958 74.4233 66.8267 75.0533 67.6092 75.0533C68.3884 75.0533 69.0227 74.4267 69.0227 73.6494C69.0227 72.8755 68.3884 72.2455 67.6092 72.2455Z" fill="#878787"/>
<path d="M74.9749 72.2455C74.1958 72.2455 73.5615 72.8721 73.5615 73.6494C73.5615 74.4233 74.1924 75.0533 74.9749 75.0533C75.7541 75.0533 76.3884 74.4267 76.3884 73.6494C76.3884 72.8755 75.7575 72.2455 74.9749 72.2455Z" fill="#878787"/>
<path d="M16.2449 79.5868C16.5724 79.8196 16.9034 80.0422 17.2378 80.2648C17.0275 79.9087 16.669 79.6553 16.2449 79.5868Z" fill="#878787"/>
<path d="M23.3912 79.5668C22.6121 79.5668 21.9778 80.1934 21.9778 80.9707C21.9778 81.7446 22.6087 82.3746 23.3912 82.3746C24.1704 82.3746 24.8047 81.748 24.8047 80.9707C24.8012 80.1934 24.1704 79.5668 23.3912 79.5668Z" fill="#878787"/>
<path d="M30.7589 79.5668C29.9798 79.5668 29.3455 80.1934 29.3455 80.9707C29.3455 81.7446 29.9763 82.3746 30.7589 82.3746C31.538 82.3746 32.1724 81.748 32.1724 80.9707C32.1724 80.1934 31.5415 79.5668 30.7589 79.5668Z" fill="#878787"/>
<path d="M38.1306 79.5668C37.3514 79.5668 36.7171 80.1934 36.7171 80.9707C36.7171 81.7446 37.348 82.3746 38.1306 82.3746C38.9097 82.3746 39.544 81.748 39.544 80.9707C39.5406 80.1934 38.9097 79.5668 38.1306 79.5668Z" fill="#878787"/>
<path d="M45.4983 79.5668C44.7191 79.5668 44.0848 80.1934 44.0848 80.9707C44.0848 81.7446 44.7157 82.3746 45.4983 82.3746C46.2774 82.3746 46.9117 81.748 46.9117 80.9707C46.9117 80.1934 46.2808 79.5668 45.4983 79.5668Z" fill="#878787"/>
<path d="M52.8699 79.5668C52.0908 79.5668 51.4564 80.1934 51.4564 80.9707C51.4564 81.7446 52.0873 82.3746 52.8699 82.3746C53.649 82.3746 54.2834 81.748 54.2834 80.9707C54.2834 80.1934 53.649 79.5668 52.8699 79.5668Z" fill="#878787"/>
<path d="M60.2376 79.5668C59.4585 79.5668 58.8241 80.1934 58.8241 80.9707C58.8241 81.7446 59.455 82.3746 60.2376 82.3746C61.0202 82.3746 61.651 81.748 61.651 80.9707C61.651 80.1934 61.0202 79.5668 60.2376 79.5668Z" fill="#878787"/>
<path d="M68.4074 82.1242C68.3178 82.1722 68.2281 82.2203 68.1351 82.2684C68.2316 82.2307 68.3247 82.1826 68.4074 82.1242Z" fill="#878787"/>
<path d="M69.0227 80.9707C69.0227 80.1969 68.3918 79.5668 67.6092 79.5668C66.8301 79.5668 66.1958 80.1934 66.1958 80.9707C66.1958 81.7446 66.8267 82.3746 67.6092 82.3746C67.7954 82.3746 67.9747 82.337 68.1402 82.2719C68.2298 82.224 68.3229 82.1761 68.4125 82.1281C68.7779 81.8713 69.0227 81.4501 69.0227 80.9707Z" fill="#878787"/>
<path d="M38.1296 86.8873C37.6676 86.8873 37.2643 87.1098 37.0057 87.4488C37.8124 87.5687 38.6192 87.6646 39.4328 87.7467C39.2156 87.24 38.7157 86.8873 38.1296 86.8873Z" fill="#878787"/>
<path d="M45.4969 86.8871C44.8177 86.8871 44.2523 87.3631 44.1145 87.9966C45.0315 88.0068 45.9485 87.9932 46.8621 87.9589C46.7173 87.3426 46.1623 86.8871 45.4969 86.8871Z" fill="#878787"/>
<path d="M51.6699 87.5551C52.3836 87.466 53.0972 87.3599 53.8039 87.2435C53.5557 87.0243 53.2282 86.8839 52.8697 86.8839C52.3594 86.8873 51.9182 87.1544 51.6699 87.5551Z" fill="#878787"/>
</g>
</svg>
