<svg width="97" height="70" viewBox="0 0 97 70" fill="none" xmlns="http://www.w3.org/2000/svg">
<path d="M9.8898 11.2787C8.73503 20.1876 12.9779 29.5851 21.2228 33.6928C29.3165 37.7257 39.9906 36.3443 46.2858 29.6507C49.5394 26.1955 51.446 21.5072 50.4306 16.7371C49.5159 12.4215 46.1947 8.84649 41.7589 8.15389C37.1751 7.43874 32.5363 9.54792 29.7489 13.1794C26.6661 17.2105 25.8557 22.5346 26.4631 27.4862C27.6262 36.8794 33.6559 45.4216 42.345 49.3404C51.0065 53.2347 62.411 53.0239 69.7359 46.3839C72.989 43.4417 74.9048 39.1663 74.4609 34.7546C74.0412 30.5717 71.7438 26.6894 67.7487 25.0546C59.022 21.4678 50.4812 30.0908 48.9322 38.1074C47.0868 47.5496 51.601 58.2341 60.4356 62.5681C69.151 66.836 80.2868 64.9456 86.9221 57.813C89.0862 55.4854 85.616 51.9559 83.4316 54.2952C79.2014 58.8398 72.6351 60.8601 66.5578 59.5224C60.2047 58.128 55.5996 53.1485 54.0148 46.926C52.4714 40.8686 54.1069 33.679 59.8395 30.4262C62.4063 28.9591 65.7921 28.652 67.8929 31.0962C69.6788 33.1824 69.9983 36.3979 69.082 38.923C66.5491 45.8208 57.2664 47.6947 50.8532 46.7801C43.6318 45.7516 37.3531 41.3328 33.9187 34.9225C30.8383 29.1716 29.2528 19.3745 35.1167 14.7374C37.3964 12.9367 41.0584 12.1735 43.476 14.1382C46.2255 16.3971 46.2736 20.4975 44.7489 23.4411C41.231 30.246 32.1864 32.5087 25.3008 30.0993C18.3034 27.6599 13.7448 19.8881 14.6924 12.5826C14.8631 11.243 14.3553 9.94401 12.9383 9.54722C11.7811 9.20293 10.0722 9.95931 9.8898 11.2787Z" fill="#FFB5A3"/>
</svg>
