<svg width="144" height="184" viewBox="0 0 144 184" fill="none" xmlns="http://www.w3.org/2000/svg">
<path d="M2 4C3.10457 4 4 3.10457 4 2C4 0.89543 3.10457 0 2 0C0.89543 0 0 0.89543 0 2C0 3.10457 0.89543 4 2 4Z" fill="#8CD1CD"/>
<path d="M22 4C23.1046 4 24 3.10457 24 2C24 0.89543 23.1046 0 22 0C20.8954 0 20 0.89543 20 2C20 3.10457 20.8954 4 22 4Z" fill="#8CD1CD"/>
<path d="M42 4C43.1046 4 44 3.10457 44 2C44 0.89543 43.1046 0 42 0C40.8954 0 40 0.89543 40 2C40 3.10457 40.8954 4 42 4Z" fill="#8CD1CD"/>
<path d="M62 4C63.1046 4 64 3.10457 64 2C64 0.89543 63.1046 0 62 0C60.8954 0 60 0.89543 60 2C60 3.10457 60.8954 4 62 4Z" fill="#8CD1CD"/>
<path d="M82 4C83.1046 4 84 3.10457 84 2C84 0.89543 83.1046 0 82 0C80.8954 0 80 0.89543 80 2C80 3.10457 80.8954 4 82 4Z" fill="#8CD1CD"/>
<path d="M102 4C103.105 4 104 3.10457 104 2C104 0.89543 103.105 0 102 0C100.895 0 100 0.89543 100 2C100 3.10457 100.895 4 102 4Z" fill="#8CD1CD"/>
<path d="M122 4C123.105 4 124 3.10457 124 2C124 0.89543 123.105 0 122 0C120.895 0 120 0.89543 120 2C120 3.10457 120.895 4 122 4Z" fill="#8CD1CD"/>
<path d="M142 4C143.105 4 144 3.10457 144 2C144 0.89543 143.105 0 142 0C140.895 0 140 0.89543 140 2C140 3.10457 140.895 4 142 4Z" fill="#8CD1CD"/>
<path d="M2 24C3.10457 24 4 23.1046 4 22C4 20.8954 3.10457 20 2 20C0.89543 20 0 20.8954 0 22C0 23.1046 0.89543 24 2 24Z" fill="#8CD1CD"/>
<path d="M22 24C23.1046 24 24 23.1046 24 22C24 20.8954 23.1046 20 22 20C20.8954 20 20 20.8954 20 22C20 23.1046 20.8954 24 22 24Z" fill="#8CD1CD"/>
<path d="M42 24C43.1046 24 44 23.1046 44 22C44 20.8954 43.1046 20 42 20C40.8954 20 40 20.8954 40 22C40 23.1046 40.8954 24 42 24Z" fill="#8CD1CD"/>
<path d="M62 24C63.1046 24 64 23.1046 64 22C64 20.8954 63.1046 20 62 20C60.8954 20 60 20.8954 60 22C60 23.1046 60.8954 24 62 24Z" fill="#8CD1CD"/>
<path d="M82 24C83.1046 24 84 23.1046 84 22C84 20.8954 83.1046 20 82 20C80.8954 20 80 20.8954 80 22C80 23.1046 80.8954 24 82 24Z" fill="#8CD1CD"/>
<path d="M102 24C103.105 24 104 23.1046 104 22C104 20.8954 103.105 20 102 20C100.895 20 100 20.8954 100 22C100 23.1046 100.895 24 102 24Z" fill="#8CD1CD"/>
<path d="M122 24C123.105 24 124 23.1046 124 22C124 20.8954 123.105 20 122 20C120.895 20 120 20.8954 120 22C120 23.1046 120.895 24 122 24Z" fill="#8CD1CD"/>
<path d="M142 24C143.105 24 144 23.1046 144 22C144 20.8954 143.105 20 142 20C140.895 20 140 20.8954 140 22C140 23.1046 140.895 24 142 24Z" fill="#8CD1CD"/>
<path d="M2 44C3.10457 44 4 43.1046 4 42C4 40.8954 3.10457 40 2 40C0.89543 40 0 40.8954 0 42C0 43.1046 0.89543 44 2 44Z" fill="#8CD1CD"/>
<path d="M22 44C23.1046 44 24 43.1046 24 42C24 40.8954 23.1046 40 22 40C20.8954 40 20 40.8954 20 42C20 43.1046 20.8954 44 22 44Z" fill="#8CD1CD"/>
<path d="M42 44C43.1046 44 44 43.1046 44 42C44 40.8954 43.1046 40 42 40C40.8954 40 40 40.8954 40 42C40 43.1046 40.8954 44 42 44Z" fill="#8CD1CD"/>
<path d="M62 44C63.1046 44 64 43.1046 64 42C64 40.8954 63.1046 40 62 40C60.8954 40 60 40.8954 60 42C60 43.1046 60.8954 44 62 44Z" fill="#8CD1CD"/>
<path d="M82 44C83.1046 44 84 43.1046 84 42C84 40.8954 83.1046 40 82 40C80.8954 40 80 40.8954 80 42C80 43.1046 80.8954 44 82 44Z" fill="#8CD1CD"/>
<path d="M102 44C103.105 44 104 43.1046 104 42C104 40.8954 103.105 40 102 40C100.895 40 100 40.8954 100 42C100 43.1046 100.895 44 102 44Z" fill="#8CD1CD"/>
<path d="M122 44C123.105 44 124 43.1046 124 42C124 40.8954 123.105 40 122 40C120.895 40 120 40.8954 120 42C120 43.1046 120.895 44 122 44Z" fill="#8CD1CD"/>
<path d="M142 44C143.105 44 144 43.1046 144 42C144 40.8954 143.105 40 142 40C140.895 40 140 40.8954 140 42C140 43.1046 140.895 44 142 44Z" fill="#8CD1CD"/>
<path d="M2 64C3.10457 64 4 63.1046 4 62C4 60.8954 3.10457 60 2 60C0.89543 60 0 60.8954 0 62C0 63.1046 0.89543 64 2 64Z" fill="#8CD1CD"/>
<path d="M22 64C23.1046 64 24 63.1046 24 62C24 60.8954 23.1046 60 22 60C20.8954 60 20 60.8954 20 62C20 63.1046 20.8954 64 22 64Z" fill="#8CD1CD"/>
<path d="M42 64C43.1046 64 44 63.1046 44 62C44 60.8954 43.1046 60 42 60C40.8954 60 40 60.8954 40 62C40 63.1046 40.8954 64 42 64Z" fill="#8CD1CD"/>
<path d="M62 64C63.1046 64 64 63.1046 64 62C64 60.8954 63.1046 60 62 60C60.8954 60 60 60.8954 60 62C60 63.1046 60.8954 64 62 64Z" fill="#8CD1CD"/>
<path d="M82 64C83.1046 64 84 63.1046 84 62C84 60.8954 83.1046 60 82 60C80.8954 60 80 60.8954 80 62C80 63.1046 80.8954 64 82 64Z" fill="#8CD1CD"/>
<path d="M102 64C103.105 64 104 63.1046 104 62C104 60.8954 103.105 60 102 60C100.895 60 100 60.8954 100 62C100 63.1046 100.895 64 102 64Z" fill="#8CD1CD"/>
<path d="M122 64C123.105 64 124 63.1046 124 62C124 60.8954 123.105 60 122 60C120.895 60 120 60.8954 120 62C120 63.1046 120.895 64 122 64Z" fill="#8CD1CD"/>
<path d="M142 64C143.105 64 144 63.1046 144 62C144 60.8954 143.105 60 142 60C140.895 60 140 60.8954 140 62C140 63.1046 140.895 64 142 64Z" fill="#8CD1CD"/>
<path d="M2 84C3.10457 84 4 83.1046 4 82C4 80.8954 3.10457 80 2 80C0.89543 80 0 80.8954 0 82C0 83.1046 0.89543 84 2 84Z" fill="#8CD1CD"/>
<path d="M22 84C23.1046 84 24 83.1046 24 82C24 80.8954 23.1046 80 22 80C20.8954 80 20 80.8954 20 82C20 83.1046 20.8954 84 22 84Z" fill="#8CD1CD"/>
<path d="M42 84C43.1046 84 44 83.1046 44 82C44 80.8954 43.1046 80 42 80C40.8954 80 40 80.8954 40 82C40 83.1046 40.8954 84 42 84Z" fill="#8CD1CD"/>
<path d="M62 84C63.1046 84 64 83.1046 64 82C64 80.8954 63.1046 80 62 80C60.8954 80 60 80.8954 60 82C60 83.1046 60.8954 84 62 84Z" fill="#8CD1CD"/>
<path d="M82 84C83.1046 84 84 83.1046 84 82C84 80.8954 83.1046 80 82 80C80.8954 80 80 80.8954 80 82C80 83.1046 80.8954 84 82 84Z" fill="#8CD1CD"/>
<path d="M102 84C103.105 84 104 83.1046 104 82C104 80.8954 103.105 80 102 80C100.895 80 100 80.8954 100 82C100 83.1046 100.895 84 102 84Z" fill="#8CD1CD"/>
<path d="M122 84C123.105 84 124 83.1046 124 82C124 80.8954 123.105 80 122 80C120.895 80 120 80.8954 120 82C120 83.1046 120.895 84 122 84Z" fill="#8CD1CD"/>
<path d="M142 84C143.105 84 144 83.1046 144 82C144 80.8954 143.105 80 142 80C140.895 80 140 80.8954 140 82C140 83.1046 140.895 84 142 84Z" fill="#8CD1CD"/>
<path d="M2 104C3.10457 104 4 103.105 4 102C4 100.895 3.10457 100 2 100C0.89543 100 0 100.895 0 102C0 103.105 0.89543 104 2 104Z" fill="#8CD1CD"/>
<path d="M22 104C23.1046 104 24 103.105 24 102C24 100.895 23.1046 100 22 100C20.8954 100 20 100.895 20 102C20 103.105 20.8954 104 22 104Z" fill="#8CD1CD"/>
<path d="M42 104C43.1046 104 44 103.105 44 102C44 100.895 43.1046 100 42 100C40.8954 100 40 100.895 40 102C40 103.105 40.8954 104 42 104Z" fill="#8CD1CD"/>
<path d="M62 104C63.1046 104 64 103.105 64 102C64 100.895 63.1046 100 62 100C60.8954 100 60 100.895 60 102C60 103.105 60.8954 104 62 104Z" fill="#8CD1CD"/>
<path d="M82 104C83.1046 104 84 103.105 84 102C84 100.895 83.1046 100 82 100C80.8954 100 80 100.895 80 102C80 103.105 80.8954 104 82 104Z" fill="#8CD1CD"/>
<path d="M102 104C103.105 104 104 103.105 104 102C104 100.895 103.105 100 102 100C100.895 100 100 100.895 100 102C100 103.105 100.895 104 102 104Z" fill="#8CD1CD"/>
<path d="M122 104C123.105 104 124 103.105 124 102C124 100.895 123.105 100 122 100C120.895 100 120 100.895 120 102C120 103.105 120.895 104 122 104Z" fill="#8CD1CD"/>
<path d="M142 104C143.105 104 144 103.105 144 102C144 100.895 143.105 100 142 100C140.895 100 140 100.895 140 102C140 103.105 140.895 104 142 104Z" fill="#8CD1CD"/>
<path d="M2 124C3.10457 124 4 123.105 4 122C4 120.895 3.10457 120 2 120C0.89543 120 0 120.895 0 122C0 123.105 0.89543 124 2 124Z" fill="#8CD1CD"/>
<path d="M22 124C23.1046 124 24 123.105 24 122C24 120.895 23.1046 120 22 120C20.8954 120 20 120.895 20 122C20 123.105 20.8954 124 22 124Z" fill="#8CD1CD"/>
<path d="M42 124C43.1046 124 44 123.105 44 122C44 120.895 43.1046 120 42 120C40.8954 120 40 120.895 40 122C40 123.105 40.8954 124 42 124Z" fill="#8CD1CD"/>
<path d="M62 124C63.1046 124 64 123.105 64 122C64 120.895 63.1046 120 62 120C60.8954 120 60 120.895 60 122C60 123.105 60.8954 124 62 124Z" fill="#8CD1CD"/>
<path d="M82 124C83.1046 124 84 123.105 84 122C84 120.895 83.1046 120 82 120C80.8954 120 80 120.895 80 122C80 123.105 80.8954 124 82 124Z" fill="#8CD1CD"/>
<path d="M102 124C103.105 124 104 123.105 104 122C104 120.895 103.105 120 102 120C100.895 120 100 120.895 100 122C100 123.105 100.895 124 102 124Z" fill="#8CD1CD"/>
<path d="M122 124C123.105 124 124 123.105 124 122C124 120.895 123.105 120 122 120C120.895 120 120 120.895 120 122C120 123.105 120.895 124 122 124Z" fill="#8CD1CD"/>
<path d="M142 124C143.105 124 144 123.105 144 122C144 120.895 143.105 120 142 120C140.895 120 140 120.895 140 122C140 123.105 140.895 124 142 124Z" fill="#8CD1CD"/>
<path d="M2 144C3.10457 144 4 143.105 4 142C4 140.895 3.10457 140 2 140C0.89543 140 0 140.895 0 142C0 143.105 0.89543 144 2 144Z" fill="#8CD1CD"/>
<path d="M22 144C23.1046 144 24 143.105 24 142C24 140.895 23.1046 140 22 140C20.8954 140 20 140.895 20 142C20 143.105 20.8954 144 22 144Z" fill="#8CD1CD"/>
<path d="M42 144C43.1046 144 44 143.105 44 142C44 140.895 43.1046 140 42 140C40.8954 140 40 140.895 40 142C40 143.105 40.8954 144 42 144Z" fill="#8CD1CD"/>
<path d="M62 144C63.1046 144 64 143.105 64 142C64 140.895 63.1046 140 62 140C60.8954 140 60 140.895 60 142C60 143.105 60.8954 144 62 144Z" fill="#8CD1CD"/>
<path d="M82 144C83.1046 144 84 143.105 84 142C84 140.895 83.1046 140 82 140C80.8954 140 80 140.895 80 142C80 143.105 80.8954 144 82 144Z" fill="#8CD1CD"/>
<path d="M102 144C103.105 144 104 143.105 104 142C104 140.895 103.105 140 102 140C100.895 140 100 140.895 100 142C100 143.105 100.895 144 102 144Z" fill="#8CD1CD"/>
<path d="M122 144C123.105 144 124 143.105 124 142C124 140.895 123.105 140 122 140C120.895 140 120 140.895 120 142C120 143.105 120.895 144 122 144Z" fill="#8CD1CD"/>
<path d="M142 144C143.105 144 144 143.105 144 142C144 140.895 143.105 140 142 140C140.895 140 140 140.895 140 142C140 143.105 140.895 144 142 144Z" fill="#8CD1CD"/>
<path d="M2 164C3.10457 164 4 163.105 4 162C4 160.895 3.10457 160 2 160C0.89543 160 0 160.895 0 162C0 163.105 0.89543 164 2 164Z" fill="#8CD1CD"/>
<path d="M22 164C23.1046 164 24 163.105 24 162C24 160.895 23.1046 160 22 160C20.8954 160 20 160.895 20 162C20 163.105 20.8954 164 22 164Z" fill="#8CD1CD"/>
<path d="M42 164C43.1046 164 44 163.105 44 162C44 160.895 43.1046 160 42 160C40.8954 160 40 160.895 40 162C40 163.105 40.8954 164 42 164Z" fill="#8CD1CD"/>
<path d="M62 164C63.1046 164 64 163.105 64 162C64 160.895 63.1046 160 62 160C60.8954 160 60 160.895 60 162C60 163.105 60.8954 164 62 164Z" fill="#8CD1CD"/>
<path d="M82 164C83.1046 164 84 163.105 84 162C84 160.895 83.1046 160 82 160C80.8954 160 80 160.895 80 162C80 163.105 80.8954 164 82 164Z" fill="#8CD1CD"/>
<path d="M102 164C103.105 164 104 163.105 104 162C104 160.895 103.105 160 102 160C100.895 160 100 160.895 100 162C100 163.105 100.895 164 102 164Z" fill="#8CD1CD"/>
<path d="M122 164C123.105 164 124 163.105 124 162C124 160.895 123.105 160 122 160C120.895 160 120 160.895 120 162C120 163.105 120.895 164 122 164Z" fill="#8CD1CD"/>
<path d="M142 164C143.105 164 144 163.105 144 162C144 160.895 143.105 160 142 160C140.895 160 140 160.895 140 162C140 163.105 140.895 164 142 164Z" fill="#8CD1CD"/>
<path d="M2 184C3.10457 184 4 183.105 4 182C4 180.895 3.10457 180 2 180C0.89543 180 0 180.895 0 182C0 183.105 0.89543 184 2 184Z" fill="#8CD1CD"/>
<path d="M22 184C23.1046 184 24 183.105 24 182C24 180.895 23.1046 180 22 180C20.8954 180 20 180.895 20 182C20 183.105 20.8954 184 22 184Z" fill="#8CD1CD"/>
<path d="M42 184C43.1046 184 44 183.105 44 182C44 180.895 43.1046 180 42 180C40.8954 180 40 180.895 40 182C40 183.105 40.8954 184 42 184Z" fill="#8CD1CD"/>
<path d="M62 184C63.1046 184 64 183.105 64 182C64 180.895 63.1046 180 62 180C60.8954 180 60 180.895 60 182C60 183.105 60.8954 184 62 184Z" fill="#8CD1CD"/>
<path d="M82 184C83.1046 184 84 183.105 84 182C84 180.895 83.1046 180 82 180C80.8954 180 80 180.895 80 182C80 183.105 80.8954 184 82 184Z" fill="#8CD1CD"/>
<path d="M102 184C103.105 184 104 183.105 104 182C104 180.895 103.105 180 102 180C100.895 180 100 180.895 100 182C100 183.105 100.895 184 102 184Z" fill="#8CD1CD"/>
<path d="M122 184C123.105 184 124 183.105 124 182C124 180.895 123.105 180 122 180C120.895 180 120 180.895 120 182C120 183.105 120.895 184 122 184Z" fill="#8CD1CD"/>
<path d="M142 184C143.105 184 144 183.105 144 182C144 180.895 143.105 180 142 180C140.895 180 140 180.895 140 182C140 183.105 140.895 184 142 184Z" fill="#8CD1CD"/>
</svg>
