<svg width="55" height="60" viewBox="0 0 55 60" fill="none" xmlns="http://www.w3.org/2000/svg">
<g clip-path="url(#clip0_1_12802)">
<path d="M50.0248 12.105L38.1244 5.23682L11.6359 22.4903L18.1613 28.0645C18.1723 28.0534 36.3216 14.9364 36.3216 14.9364C36.5212 14.7972 36.7605 14.7264 37.0036 14.7344C37.2468 14.7423 37.4809 14.8287 37.6709 14.9806C39.0932 16.143 53.0995 27.5922 54.0728 28.3963V19.1059C54.0705 17.6867 53.6954 16.2929 52.985 15.0642C52.2745 13.8355 51.2538 12.815 50.0248 12.105ZM18.0838 42.011L25.0184 36.835C20.433 32.9187 0.719778 16.0645 0.719778 16.0645C-0.277826 18.0221 0.259686 24.3152 0.133603 26.494C0.835907 27.0989 16.8064 40.9094 18.0838 42.011Z" fill="#8A47CB"/>
<path d="M34.8615 29.48L28.3804 23.4081L19.8864 29.5353L26.832 35.4745L34.8615 29.48ZM9.87715 20.986L35.9896 3.99798L31.1454 1.19983C29.9171 0.48899 28.5235 0.113765 27.1044 0.111824C25.6854 0.109883 24.2907 0.481293 23.0606 1.18877L4.1813 12.0938C3.28048 12.6121 2.48812 13.2993 1.84766 14.1178C2.92157 15.0468 8.6683 19.9585 9.87715 20.986ZM44.1297 38.1731L18.0725 55.9242C20.4571 57.1641 24.2672 60.116 27.0864 59.8837C28.5064 59.8873 29.9024 59.5174 31.1343 58.8109L50.0136 47.9058C50.9143 47.3875 51.7067 46.7003 52.3472 45.8819C51.3043 44.9307 45.2998 39.2636 44.1297 38.1731Z" fill="#8A47CB"/>
<path d="M36.4991 31.0175L27.4521 37.7751L18.6926 44.3225C18.5001 44.4641 18.268 44.5415 18.029 44.5437C17.764 44.541 17.5087 44.4428 17.3101 44.2672C15.9553 43.0949 0.971342 30.1559 0.134107 29.4138L0.123047 40.894C0.125299 42.3132 0.500422 43.707 1.21085 44.9357C1.92127 46.1644 2.94206 47.1849 4.17097 47.8949L15.9608 54.7078L42.4825 36.6248L36.4991 31.0175ZM36.9304 17.2368L30.2171 22.0811C34.8268 26.4121 53.476 43.9244 53.476 43.9244C53.8602 42.9639 54.0591 41.9394 54.0622 40.905V31.2497C53.2349 30.5717 38.2687 18.3284 36.9304 17.2368Z" fill="#8A47CB"/>
</g>
<defs>
<clipPath id="clip0_1_12802">
<rect width="54.1936" height="60" fill="white"/>
</clipPath>
</defs>
</svg>
