<?xml version="1.0" encoding="UTF-8"?>
<!-- Generator: Adobe Illustrator 24.3.0, SVG Export Plug-In . SVG Version: 6.00 Build 0)  -->
<svg xmlns="http://www.w3.org/2000/svg" xmlns:xlink="http://www.w3.org/1999/xlink" version="1.1" id="Layer_1" x="0px" y="0px" viewBox="0 0 274.5 411.1" style="enable-background:new 0 0 274.5 411.1;" xml:space="preserve">
<style type="text/css">
	.st0{fill:#FFDF99;}
	.st1{fill:#FCCF7E;}
	.st2{fill:#0A5647;}
	.st3{fill:#2B9E88;}
	.st4{fill:#239680;}
	.st5{fill:#43AF9A;}
	.st6{fill:#58BCA9;}
	.st7{fill:#6ECEBB;}
	.st8{fill:#F9C573;}
	.st9{fill:#E8B156;}
	.st10{fill:#934715;}
	.st11{fill:#B55515;}
	.st12{fill:#FFFFFF;}
	.st13{fill:#DD5A3C;}
	.st14{fill:#72310D;}
	.st15{fill:#65C9B6;}
</style>
<g>
	<g>
		<path class="st0" d="M63.6,77.4c0,0-2.8-8.5-2.4-12.7c0.4-4.1,4.9-8.3,5.6-14.3c0.7-6,3.5-8.9,4-12.3c0.5-3.4-3.6-3.4-5.7-0.6    c-2.1,2.8-3.1,8.4-4.7,9.7c-1.6,1.3-2-9.9-6.1-16.3s-6.5-5.4-7.5-4.6c-1,0.8,1.1,4.1,2.6,6.3c1.5,2.2,3.4,7.1,3.3,8.8    c-3.7-6.6-7.7-10.8-10.3-11.6c-2.6-0.8-3.1,1.5-1.7,3.7c1.4,2.2,5.9,6.3,7.3,10.8c-3-4.1-7.9-8.9-10-9.5c-2-0.6-2.3,1.9,0,4.5    c2.3,2.5,6.3,6,6.9,7.5c-3.4-2.8-6.4-5.2-8.2-5.4c-1.8-0.2-2.4,2.1,0.5,4.1c2.9,1.9,5.7,7.1,5.9,11.2c0.2,4.1,3.9,6.5,5,7.7    c1.1,1.2,2.6,18.9,2.6,18.9L63.6,77.4z"></path>
		<path class="st1" d="M54.7,76.4c-0.7-2.1-3.2-11.2-1.4-11.8c1.8-0.6,3.2-1,4.6-2.7c-0.3,0.1-4.5,1.3-9.2,0.8    c-4.4-0.4-5.6-5.1-5.7-5.6c0.5,3.8,3.9,6,4.9,7.2c0.7,0.8,1.7,9.4,2.2,14.7C52.3,78.6,55.1,77.8,54.7,76.4z"></path>
		<path class="st1" d="M59.9,47.3c0,0-7.1,0.1-8.5,9.4C53,53.4,55.6,48.6,59.9,47.3z"></path>
		<path class="st1" d="M43,49.1c0,0,4.2-8.2,13.7-7.6C52.4,42.3,46.3,45,43,49.1z"></path>
	</g>
	<g>
		<path class="st0" d="M211.9,77.4c0,0,2.8-8.5,2.4-12.7c-0.4-4.1-4.9-8.3-5.6-14.3c-0.7-6-3.5-8.9-4-12.3c-0.5-3.4,3.6-3.4,5.7-0.6    c2.1,2.8,3.1,8.4,4.7,9.7c1.6,1.3,2-9.9,6.1-16.3c4.1-6.5,6.5-5.4,7.5-4.6c1,0.8-1.1,4.1-2.6,6.3c-1.5,2.2-3.4,7.1-3.3,8.8    c3.7-6.6,7.7-10.8,10.3-11.6c2.6-0.8,3.1,1.5,1.7,3.7c-1.4,2.2-5.9,6.3-7.3,10.8c3-4.1,7.9-8.9,10-9.5c2-0.6,2.3,1.9,0,4.5    c-2.3,2.5-6.3,6-6.9,7.5c3.4-2.8,6.4-5.2,8.2-5.4c1.8-0.2,2.4,2.1-0.5,4.1c-2.9,1.9-5.7,7.1-5.9,11.2c-0.2,4.1-3.9,6.5-5,7.7    c-1.1,1.2-2.6,18.9-2.6,18.9L211.9,77.4z"></path>
		<path class="st1" d="M220.8,76.4c0.7-2.1,3.2-11.2,1.4-11.8c-1.8-0.6-3.2-1-4.6-2.7c0.3,0.1,4.5,1.3,9.2,0.8    c4.4-0.4,5.6-5.1,5.7-5.6c-0.5,3.8-3.9,6-4.9,7.2c-0.7,0.8-1.7,9.4-2.2,14.7C223.2,78.6,220.4,77.8,220.8,76.4z"></path>
		<path class="st1" d="M215.5,47.3c0,0,7.1,0.1,8.5,9.4C222.5,53.4,219.9,48.6,215.5,47.3z"></path>
		<path class="st1" d="M232.4,49.1c0,0-4.2-8.2-13.7-7.6C223.1,42.3,229.2,45,232.4,49.1z"></path>
	</g>
	<g>
		<g>
			<path class="st0" d="M123,361.6c0,0-2.2,7.4-1.7,11c0.4,3.6,2.8,8.7,1.7,13.4c-1,4.7-7.8,3.6-12.5,3.9     c-4.7,0.3-23.1,1.3-23.1,1.3l-2.2-14.8c0,0,11.8-1.5,15.3-3.8c3.5-2.3,3.1-11,3.1-11H123z"></path>
			<path class="st1" d="M123.2,383.2c-0.1-3.8-1.6-7.6-2-10.5c-0.4-3.6,1.7-11,1.7-11h-19.5c0,0,0.2,5-1.2,8.5     C112,367.6,119.3,374.9,123.2,383.2z"></path>
			<path class="st2" d="M94.3,389.8c0,0,10.8-0.4,18.5-1.2c7.7-0.8,9.5-2,11,0c1.5,2-0.1,4.5-4.9,4.5c-4.7,0-20.9,1.5-27.5,2.3     c-6.5,0.7-20,2.1-24.9-1.7c-4.9-3.8-1.5-13.7,9.5-16.4s13.6-2.6,13.6-2.6S95.8,377.1,94.3,389.8z"></path>
		</g>
		<g>
			<path class="st0" d="M163.4,361.6c0,0,2.2,7.4,1.7,11c-0.4,3.6-2.8,8.7-1.7,13.4c1,4.7,7.8,3.6,12.5,3.9     c4.7,0.3,23.1,1.3,23.1,1.3l2.2-14.8c0,0-11.8-1.5-15.3-3.8c-3.5-2.3-3.1-11-3.1-11H163.4z"></path>
			<path class="st1" d="M184.3,370.5c-1.6-3.4-1.4-8.9-1.4-8.9h-19.5c0,0,2.2,7.4,1.7,11c-0.2,2.1-1.1,4.6-1.6,7.3     C168.1,373.5,176.2,369.2,184.3,370.5z"></path>
			<path class="st2" d="M192.1,389.8c0,0-10.8-0.4-18.5-1.2c-7.7-0.8-9.5-2-11,0c-1.5,2,0.1,4.5,4.9,4.5c4.7,0,20.9,1.5,27.5,2.3     c6.5,0.7,20,2.1,24.9-1.7c4.9-3.8,1.5-13.7-9.5-16.4s-13.6-2.6-13.6-2.6S190.6,377.1,192.1,389.8z"></path>
		</g>
		<path class="st3" d="M100.7,251.4c0,0-5.8,108.3-5.8,113.1c16.3,2.9,31.8-0.9,31.8-0.9l15.6-107.7l17.3,109.9h29.5    c0,0,0-93.9-8.3-142.5C172.5,174.5,103,208.6,100.7,251.4z"></path>
		<path class="st4" d="M180.8,223.2c-8.3-48.7-77.8-14.6-80.1,28.2c0,0-1,18.2-2.1,40c9.7-10.2,25.4-13.7,40.2-10.7l3.6-24.8    l6.4,40.8c7.8-13.1,21.7-22.1,37.5-20.8C185.1,256.7,183.3,237.9,180.8,223.2z"></path>
	</g>
	<path class="st5" d="M129.1,130c0,0-10.5,0.4-16.1-2c-5.5-2.4-26.5-15.1-34.4-24.6c-7.9-9.5-15.7-35.6-15.7-35.6L38.5,80.2   c0,0,3.6,17.8,16.2,39.7c12.6,21.9,42.2,36.3,46.6,39.6c4.3,3.2-1.4,41.3-2.9,66.5c-1.4,25.2-7.9,39-7.9,39s37.1,17.5,91.6,4.3   c1.1-20.5-1.5-35.8-1.5-35.8l8.4,34.3l7.8-3.3c0,0-10.9-51.1-10.9-75.2c0-24.1,2.9-32.2,2.9-32.2s28.4-20.6,36.1-34   c7.7-13.4,9.1-48.5,9.1-48.5l-23.9-3.5c0,0-2.4,25.3-6.7,31.5c-4.3,6.3-26.3,23.6-33.5,25.3c-7.3,1.6-12.9-2.1-12.9-2.1L129.1,130z   "></path>
	<path class="st6" d="M129.1,130c0,0-10.5,0.4-16.1-2c-5.5-2.4-26.5-15.1-34.4-24.6c-7.9-9.5-15.7-35.6-15.7-35.6l-19,9.7   c0,0,1.3,17.5,13.9,39.4c12.6,21.9,39.1,39.5,43.4,42.7c4.3,3.2-1.4,41.3-2.9,66.5c-1.4,25.2-7.9,39-7.9,39s37.1,17.5,91.6,4.3   c1.1-20.5-1.5-35.8-1.5-35.8l8.4,34.3l7.8-3.3c0,0-10.9-51.1-10.9-75.2c0-24.1,2.9-32.2,2.9-32.2s28.4-20.6,36.1-34   c7.7-13.4,9.1-48.5,9.1-48.5l-19.2-2.8c0,0-2.2,24.8-7.3,33.3c-7.8,12.9-30.4,21.2-37.6,22.8c-7.3,1.6-12.9-2.1-12.9-2.1L129.1,130   z"></path>
	<path class="st5" d="M171,128.5c0,0-4.4,15.6,11.4,25.8C174.3,144.8,171.5,138.7,171,128.5z"></path>
	<path class="st5" d="M101.3,159.6c0,0-2-15.2,11.2-25.5C107,142.4,103.2,147.3,101.3,159.6z"></path>
	<path class="st7" d="M182.2,269.3c1.1-20.5-1.5-35.8-1.5-35.8l8.4,34.3l7.8-3.3c0,0-0.8-3.6-1.9-9.3l-3.4,0.9l-6.7-29.6l-5.5-6.7   c0,0-1.3,3.2-4.5,6.2c0.4,2.8,0,36.3,0,36.3s-11.2,4.2-40.4,2.5c-21.9-1.3-35.8-5-41.4-6.7c-1.4,4.6-2.5,7-2.5,7   S127.6,282.5,182.2,269.3z"></path>
	<path class="st7" d="M208.7,83c8.5,2.9,20.4,4,24.5,4.3c0.3-3.4,0.5-6.3,0.7-8.5c-10.2-0.3-19.2-2.4-24.1-3.7   C209.5,77.2,209.2,80,208.7,83z"></path>
	<path class="st7" d="M39.5,83.9c0.5,2,1.4,4.8,2.5,8.1c3.9-1.4,17.6-6.8,24.8-12.8c-1-2.9-1.9-5.4-2.5-7.4   C62.1,73.2,52.2,79.7,39.5,83.9z"></path>
	<g>
		<g>
			<polygon class="st8" points="126.9,115.2 126,126.2 139.6,137.9 159,121.1 158.4,113.9    "></polygon>
			<g>
				<g>
					<g>
						<g>
							<path class="st1" d="M174.3,86.1c0,0,6.7-6.1,10.8,0c4.1,6.1-4.3,14.2-9.2,13.8s-5.4-3.2-5.3-4.8         C170.7,93.6,174.3,86.1,174.3,86.1z"></path>
							<g>
								<path class="st9" d="M180.7,96.1c0,0,3.2-1.6,3.6-6c0.5-4.4-5.6-4.2-7-2.5c-1.4,1.7-1.1,2.9-0.8,4.1          c0.3,1.3-0.3,1.8-1.7,2.1s-0.9,2,0.7,2c1.6,0,2.9-1.4,2.6-3.4c-0.2-2.1,0.1-4.1,2.1-4.5c2-0.4,3.1,0.7,2.9,3          S181.6,95.5,180.7,96.1z"></path>
								<path class="st9" d="M177.8,92.8c0,0,1.4-1.8,2.6-0.8c1.1,1-0.6,3.5-3.4,4.6c2.4-0.4,4.8-1.8,5-4.4c0.2-2.3-3.5-2.6-4.3-1.1          C176.9,92.8,177.8,92.8,177.8,92.8z"></path>
							</g>
						</g>
						<g>
							<path class="st1" d="M107.9,86.1c0,0-6.7-6.1-10.8,0c-4.1,6.1,4.3,14.2,9.2,13.8c4.9-0.3,5.4-3.2,5.3-4.8         C111.5,93.6,107.9,86.1,107.9,86.1z"></path>
							<g>
								<path class="st9" d="M101.5,96.1c0,0-3.2-1.6-3.6-6c-0.5-4.4,5.6-4.2,7-2.5c1.4,1.7,1.1,2.9,0.8,4.1          c-0.3,1.3,0.3,1.8,1.7,2.1c1.4,0.3,0.9,2-0.7,2c-1.6,0-2.9-1.4-2.6-3.4c0.2-2.1-0.1-4.1-2.1-4.5c-2-0.4-3.1,0.7-2.9,3          C99.2,93.2,100.6,95.5,101.5,96.1z"></path>
								<path class="st9" d="M104.4,92.8c0,0-1.4-1.8-2.6-0.8c-1.1,1,0.6,3.5,3.4,4.6c-2.4-0.4-4.8-1.8-5-4.4          c-0.2-2.3,3.5-2.6,4.3-1.1C105.3,92.8,104.4,92.8,104.4,92.8z"></path>
							</g>
						</g>
					</g>
					<g>
						<path class="st0" d="M132.1,46.8c0,0-17.9,3-25.1,26.3c-6.2,20,9,45.4,31.2,46.8c22.8,1.5,37.7-20.4,37.7-37.2        C175.9,61,158.7,41.2,132.1,46.8z"></path>
						<path class="st1" d="M132.1,46.8c0,0-17.9,3-25.1,26.3c-6.2,20,9,45.4,31.2,46.8c22.8,1.5,37.7-20.4,37.7-37.2        C175.9,61,158.7,41.2,132.1,46.8z M155.9,110.6c-6.1,6.8-9.1,8.5-17,8.2c-7.9-0.3-13.8-5-16.9-10c-3-5-4.9-7.9-8.7-13.4        c-3.9-5.4-6.5-10.9-5.2-17.6c1.3-6.6,7.6-9.9,11.1-15.3c2.9-4.6,7.5-6,11-6.9c4.9-2.1,6.2-2,13.1-2.8        c-3.5,2.6-1.4,5.8-9.3,10.9c4.3-1.4,6.3-1.4,9.8-4.4c3.7-3.2,6.3-3.5,8.8-4.7c-0.5,2.4-10,11.1-13.6,12.4        c4.6,0.9,16.1-0.4,21.7-7c0,0,6.1,9,8.8,13c2,3,6.3,12.9,1.1,19.1C165.4,98.3,162,103.8,155.9,110.6z"></path>
					</g>
					<g>
						<g>
							<path class="st10" d="M155.5,70.4c0,0,5.7-1.2,10.7,4.2c-1.2-3.8-4.8-6.4-9.4-6.9C152.2,67.3,153.4,70.8,155.5,70.4z"></path>
						</g>
						<g>
							<path class="st10" d="M125.8,70.4c0,0-5.7-1.2-10.7,4.2c1.2-3.8,4.8-6.4,9.4-6.9C129,67.3,127.8,70.8,125.8,70.4z"></path>
						</g>
						<path class="st1" d="M136.6,91.9c0,0,1.9,1.7,4.8,1.3c2.7-0.4,3.1-2.1,4.5-1c1.3,1.1-1.2,3.3-5.5,3.1        c-4.3-0.2-5.6-1.3-5.4-2.6C135.2,91.7,136.1,91.6,136.6,91.9z"></path>
						<g>
							<path class="st11" d="M129.5,99c0,0,11.7,3.6,22.2,0C150.1,112.3,134,118.3,129.5,99z"></path>
							<path class="st12" d="M129.9,99.2c0.2,1.2,1.7,4.1,10,4.4c8.6,0.3,10.4-2.1,11.3-4.3C142.1,102.1,132.1,99.7,129.9,99.2z"></path>
							<path class="st13" d="M140.6,105.5c-3.9-1.9-7-0.1-8.2,0.8c4.7,7.4,12.5,5.9,16.6,0C147.2,105.2,144.2,104.1,140.6,105.5z"></path>
						</g>
					</g>
				</g>
			</g>
		</g>
		<g>
			<path class="st1" d="M150.6,79.7c0,0,1.6-7,7.7-6.6c6.1,0.4,7.5,8.7,7.5,8.7L150.6,79.7z"></path>
			<g>
				<path class="st12" d="M150.6,79.7c0,0,0.9-0.8,2.8-2c2.5-1.7,6.9-2.9,9.5,1.4c1.7,3.1,2.5,3,2.5,3s-2.8,2.6-8,2.2      C152.1,83.8,150.6,79.7,150.6,79.7z"></path>
				<g>
					<path class="st10" d="M161.4,80.7c0,2-1.6,3.6-3.6,3.6c-2,0-3.6-1.6-3.6-3.6s1.6-3.6,3.6-3.6C159.8,77.1,161.4,78.7,161.4,80.7       z"></path>
					<path class="st14" d="M160,80.7c0,1.2-1,2.2-2.2,2.2c-1.2,0-2.2-1-2.2-2.2c0-1.2,1-2.2,2.2-2.2C159,78.5,160,79.5,160,80.7z"></path>
				</g>
				<path class="st14" d="M150.6,79.7c0,0,2-0.3,4.3-1.4c2.4-1.1,4.9-0.6,7.4,1.9c2.2,2.2,3.3,2.6,4.6,1.9c-1.3-0.3-2.3-0.7-3.7-3.3      c-1.4-2.6-4.6-3.4-7.1-2.7C153.7,76.9,150.6,79.7,150.6,79.7z"></path>
				<path class="st12" d="M159.1,82.4c0,0.5-0.4,0.8-0.8,0.8c-0.5,0-0.8-0.4-0.8-0.8c0-0.5,0.4-0.8,0.8-0.8      C158.7,81.6,159.1,82,159.1,82.4z"></path>
			</g>
		</g>
		<g>
			<path class="st1" d="M131.5,79.7c0,0-1.6-7-7.7-6.6c-6.1,0.4-7.5,8.7-7.5,8.7L131.5,79.7z"></path>
			<g>
				<path class="st12" d="M131.5,79.7c0,0-0.9-0.8-2.8-2c-2.5-1.7-6.9-2.9-9.5,1.4c-1.7,3.1-2.5,3-2.5,3s2.8,2.6,8,2.2      C130,83.8,131.5,79.7,131.5,79.7z"></path>
				<g>
					<path class="st10" d="M120.7,80.7c0,2,1.6,3.6,3.6,3.6c2,0,3.6-1.6,3.6-3.6s-1.6-3.6-3.6-3.6C122.3,77.1,120.7,78.7,120.7,80.7       z"></path>
					<circle class="st14" cx="124.3" cy="80.7" r="2.2"></circle>
				</g>
				<path class="st14" d="M131.5,79.7c0,0-2-0.3-4.3-1.4c-2.4-1.1-4.9-0.6-7.4,1.9c-2.2,2.2-3.3,2.6-4.6,1.9      c1.3-0.3,2.3-0.7,3.7-3.3c1.4-2.6,4.6-3.4,7.1-2.7C128.4,76.9,131.5,79.7,131.5,79.7z"></path>
				<circle class="st12" cx="123.8" cy="82.4" r="0.8"></circle>
			</g>
		</g>
		<path class="st14" d="M118.7,56.3c0,0,0.8,8.5-4.1,12.8c-4.9,4.3-8,13.4-6.8,20.2c-3.7-4.6-4.8-6-8.5-5.3    c3.4-12.7-3.5-19.8,0.9-33.9c4.4-14.2,23.1-27.9,41.8-25.6c18.6,2.2,25.8,7.5,27.2,16.3c1.4,8.7-11.8,24.2-30.3,24.3    c6.2-2.4,10.2-7.7,10-11c-6.7,6.3-13.3,7-18.3,6.2c5.6-1.1,10-10.5,10-10.5C128.3,57.3,118.7,56.3,118.7,56.3z"></path>
		<path class="st14" d="M161.4,52.4c0,0,0.3,8.1,4.3,12.6c4,4.5,10.1,17.7,7.5,25.4c3.5-5.9,7.4-6.7,9.2-6.6    c-4.1-13.4,3.4-29.7-4.1-37.9c-7.5-8.2-14.6-6.6-14.6-6.6L161.4,52.4z"></path>
		<path class="st6" d="M111.6,34.1c0,0,45.6-7.1,70.1,28.3c6.3-13.1-4.8-32.7-20.3-39.9C142.1,13.6,119.7,21.4,111.6,34.1z"></path>
		<path class="st5" d="M123.3,33.6c9.3-9.2,26.5-14.2,42.4-8.7c-1.4-0.9-2.9-1.7-4.4-2.4c-19.3-8.9-41.7-1.1-49.8,11.6    C111.6,34.1,116.2,33.4,123.3,33.6z"></path>
	</g>
	<path class="st15" d="M132.4,135.9c0,0-0.9,29.6,0,36c0.9,6.4,7.6,11,7.6,11s9.3-5.7,10.6-11.3c1.3-5.7,1.9-35.8,1.9-35.8   S138.3,141.3,132.4,135.9z"></path>
	<path class="st7" d="M126.5,121.4l-2.7,8.5c0,0,2.7,7.1,15,10.3c13.5-0.2,23.2-7.5,24.5-12c0-3.2-4.5-11.4-4.5-11.4   s-1.5,5.4-7.9,7.5c-8.2,2.7-11.1,11.6-11.1,11.6S137.6,123.8,126.5,121.4z"></path>
</g>
</svg>
