<svg width="47" height="32" viewBox="0 0 47 32" fill="none" xmlns="http://www.w3.org/2000/svg">
<path d="M0 4C0 2.89543 0.89543 2 2 2H45C46.1046 2 47 2.89543 47 4V24C47 25.1046 46.1046 26 45 26H22L17.7682 31.0781C17.3684 31.5579 16.6316 31.5579 16.2318 31.0781L12 26H2C0.895431 26 0 25.1046 0 24V4Z" fill="#146761"/>
<path d="M17.1016 20H14.9746L7.39844 9.82227V20H5.46484V6.81641H7.5918L15.168 17.0029V6.81641H17.1016V20ZM27.4727 18.9541C26.3828 19.7686 25.1846 20.1758 23.8779 20.1758C22.9463 20.1758 22.1113 19.9707 21.373 19.5605C20.6348 19.1504 20.0518 18.5908 19.624 17.8818C19.1963 17.1729 18.9824 16.373 18.9824 15.4824C18.9824 14.6328 19.1787 13.874 19.5713 13.2061C19.9639 12.5322 20.5 12.002 21.1797 11.6152C21.8594 11.2285 22.6299 11.0352 23.4912 11.0352C24.3818 11.0352 25.1641 11.2461 25.8379 11.668C26.5176 12.0898 27.0449 12.6787 27.4199 13.4346C27.8008 14.1846 27.9912 15.0547 27.9912 16.0449V16.3262H20.9336C21.0391 16.7832 21.2383 17.1846 21.5312 17.5303C21.8242 17.8701 22.1875 18.1367 22.6211 18.3301C23.0547 18.5176 23.5439 18.6113 24.0889 18.6113C25.0615 18.6113 25.9551 18.2949 26.7695 17.6621L27.4727 18.9541ZM20.8545 15.0781H26.3125C26.2539 14.5859 26.1016 14.1582 25.8555 13.7949C25.6094 13.4258 25.29 13.1387 24.8975 12.9336C24.5107 12.7227 24.0742 12.6172 23.5879 12.6172C23.0957 12.6172 22.6533 12.7227 22.2607 12.9336C21.8682 13.1387 21.5488 13.4258 21.3027 13.7949C21.0625 14.1641 20.9131 14.5918 20.8545 15.0781ZM39.5664 20H37.4922L35.6992 13.7158L33.9062 20H31.832L29.0195 11.2109H30.9268L32.8516 17.9434L34.8818 11.2109H36.5166L38.5469 17.9521L40.4805 11.2109H42.3877L39.5664 20Z" fill="#FBFBFB"/>
</svg>
