<svg width="50" height="50" viewBox="0 0 50 50" fill="none" xmlns="http://www.w3.org/2000/svg">
<g clip-path="url(#clip0_1_11662)">
<path d="M41.5131 8.48689L32.3398 17.6602C30.4611 15.7815 27.866 14.6193 25 14.6193V1.64697C31.4484 1.64697 37.2874 4.26018 41.5131 8.48689Z" fill="url(#paint0_linear_1_11662)"/>
<path d="M17.6597 17.6601C15.781 19.5388 14.6189 22.134 14.6189 24.9999H1.64648C1.64648 18.5515 4.25969 12.7125 8.4864 8.48682L17.6597 17.6601Z" fill="url(#paint1_linear_1_11662)"/>
<path d="M24.9994 1.64697V14.6193C22.1335 14.6193 19.5383 15.7815 17.6596 17.6602L8.48633 8.48689C12.712 4.26018 18.551 1.64697 24.9994 1.64697Z" fill="url(#paint2_linear_1_11662)"/>
<path d="M48.3531 24.9999H35.3807C35.3807 22.134 34.2185 19.5388 32.3398 17.6601L41.5131 8.48682C45.7399 12.7125 48.3531 18.5515 48.3531 24.9999Z" fill="url(#paint3_linear_1_11662)"/>
<path d="M48.3531 25C48.3531 31.4484 45.7399 37.2874 41.5131 41.5131L32.3398 32.3398C34.2185 30.4611 35.3807 27.8659 35.3807 25H48.3531Z" fill="url(#paint4_linear_1_11662)"/>
<path d="M17.6597 32.3398L8.4864 41.5131C4.25969 37.2874 1.64648 31.4484 1.64648 25H14.6189C14.6189 27.8659 15.781 30.4611 17.6597 32.3398Z" fill="url(#paint5_linear_1_11662)"/>
<path d="M41.5131 41.5131C37.2874 45.7399 31.4484 48.3531 25 48.3531V35.3807C27.866 35.3807 30.4611 34.2185 32.3398 32.3398L41.5131 41.5131Z" fill="url(#paint6_linear_1_11662)"/>
<path d="M24.9994 35.3807V48.3531C18.551 48.3531 12.712 45.7399 8.48633 41.5131L17.6596 32.3398C19.5383 34.2185 22.1335 35.3807 24.9994 35.3807Z" fill="url(#paint7_linear_1_11662)"/>
<path d="M37.5267 12.4732L32.3398 17.6602C30.4611 15.7815 27.8659 14.6193 25 14.6193V7.28516C29.8924 7.28516 34.32 9.26768 37.5267 12.4732Z" fill="url(#paint8_linear_1_11662)"/>
<path d="M17.6602 17.6601C15.7815 19.5387 14.6193 22.1339 14.6193 24.9998H7.28516C7.28516 20.1074 9.26758 15.6799 12.4732 12.4731L17.6602 17.6601Z" fill="url(#paint9_linear_1_11662)"/>
<path d="M24.9993 7.28516V14.6193C22.1334 14.6193 19.5382 15.7815 17.6596 17.6602L12.4727 12.4732C15.6794 9.26768 20.1069 7.28516 24.9993 7.28516Z" fill="url(#paint10_linear_1_11662)"/>
<path d="M42.7148 24.9998H35.3807C35.3807 22.1339 34.2185 19.5387 32.3398 17.6601L37.5268 12.4731C40.7323 15.6799 42.7148 20.1074 42.7148 24.9998Z" fill="url(#paint11_linear_1_11662)"/>
<path d="M42.7148 25C42.7148 29.8924 40.7323 34.32 37.5268 37.5267L32.3398 32.3398C34.2185 30.4611 35.3807 27.8659 35.3807 25H42.7148Z" fill="url(#paint12_linear_1_11662)"/>
<path d="M17.6602 32.3398L12.4732 37.5267C9.26768 34.32 7.28516 29.8924 7.28516 25H14.6193C14.6193 27.8659 15.7815 30.4611 17.6602 32.3398Z" fill="url(#paint13_linear_1_11662)"/>
<path d="M37.5267 37.5268C34.32 40.7323 29.8924 42.7148 25 42.7148V35.3807C27.8659 35.3807 30.4611 34.2185 32.3398 32.3398L37.5267 37.5268Z" fill="url(#paint14_linear_1_11662)"/>
<path d="M24.9993 35.3807V42.7148C20.1069 42.7148 15.6794 40.7323 12.4727 37.5268L17.6596 32.3398C19.5382 34.2185 22.1334 35.3807 24.9993 35.3807Z" fill="url(#paint15_linear_1_11662)"/>
<path d="M44.2094 11.7188L34.6805 21.2476C35.132 22.4114 35.3802 23.6765 35.3802 24.9996C35.3802 27.8655 34.218 30.4607 32.3394 32.3393C30.4607 34.218 27.8655 35.3802 24.9996 35.3802C23.6765 35.3802 22.4113 35.132 21.2476 34.6805L11.7188 44.2093C15.4895 46.8213 20.0657 48.3526 24.9997 48.3526C31.4481 48.3526 37.2871 45.7394 41.5128 41.5126C45.7395 37.2871 48.3527 31.448 48.3527 24.9996C48.3526 20.0657 46.8213 15.4895 44.2094 11.7188Z" fill="url(#paint16_linear_1_11662)"/>
<path d="M5.28873 34.6611L0.301278 48.6128C0.0599904 49.2878 0.711836 49.9398 1.38688 49.6985L15.3386 44.711C18.1221 41.9275 8.07218 31.8776 5.28873 34.6611Z" fill="url(#paint17_linear_1_11662)"/>
<path d="M32.1812 27.8702L15.3386 44.7111C15.0635 44.2343 14.6453 43.8123 14.1097 43.5134C13.3778 43.1081 12.2333 43.33 11.4409 43.5703C11.2685 43.6216 11.1107 43.5317 11.0466 43.3942C11.0251 43.3503 11.0136 43.3022 11.013 43.2534C11.0124 43.2046 11.0226 43.1562 11.0429 43.1118C11.0447 43.1118 11.0447 43.1099 11.0447 43.1099C11.0884 43.0098 11.127 42.9076 11.1603 42.8036L11.2044 42.655C11.2062 42.6513 11.2062 42.6495 11.2062 42.6459C11.2485 42.4863 11.2778 42.3268 11.2943 42.1635C11.2998 42.1103 11.3035 42.0553 11.3071 42.0021C11.3117 41.9135 11.3125 41.8249 11.3096 41.7363C11.2897 41.1019 11.0778 40.4885 10.7017 39.9772C10.6068 39.8475 10.502 39.7255 10.3881 39.6121C10.2748 39.4982 10.1528 39.3933 10.0231 39.2984C9.42512 38.8583 8.70611 38.6565 7.99816 38.6932C7.94498 38.6969 7.88994 38.7005 7.83676 38.706C7.6735 38.7225 7.51209 38.7518 7.35437 38.794C7.35069 38.794 7.34884 38.794 7.34515 38.7959L7.19656 38.8399C7.14337 38.8564 7.09202 38.8748 7.04068 38.895C6.99118 38.9133 6.94158 38.9335 6.89208 38.9555C6.89024 38.9555 6.89024 38.9555 6.8884 38.9574C6.84399 38.9777 6.79561 38.9879 6.74676 38.9873C6.69791 38.9867 6.64982 38.9752 6.60595 38.9537C6.46842 38.8895 6.37855 38.7317 6.42989 38.5593C6.67021 37.7669 6.89208 36.6243 6.48677 35.8924C6.18773 35.355 5.76776 34.9368 5.28906 34.6617L22.1299 17.8191C22.8892 17.0616 24.1182 17.0616 24.8757 17.8191L26.3082 19.2516L30.7487 23.6922L32.1812 25.1247C32.9387 25.882 32.9387 27.1109 32.1812 27.8702Z" fill="url(#paint18_linear_1_11662)"/>
<path d="M30.7483 23.6921L11.0461 43.3942C11.0246 43.3504 11.0131 43.3023 11.0125 43.2534C11.0119 43.2046 11.0221 43.1562 11.0424 43.1118C11.0443 43.1118 11.0443 43.11 11.0443 43.11C11.0883 43.0091 11.279 42.3249 11.2937 42.1635C11.3011 42.1085 11.3047 42.0553 11.3065 42.0021C11.3432 41.2942 11.1414 40.5752 10.7013 39.9772C10.6064 39.8476 10.5015 39.7255 10.3877 39.6121C10.2743 39.4982 10.1523 39.3934 10.0226 39.2985C9.42464 38.8583 8.70563 38.6565 7.99768 38.6932C7.94449 38.695 7.8913 38.6987 7.83627 38.706C7.67318 38.7209 7.51174 38.7504 7.35389 38.794C7.3502 38.794 7.34836 38.794 7.34467 38.7959C7.29517 38.8087 6.94119 38.9334 6.8916 38.9555C6.88975 38.9555 6.88975 38.9555 6.88791 38.9573C6.8435 38.9776 6.79512 38.9879 6.74627 38.9872C6.69743 38.9866 6.64933 38.9751 6.60547 38.9536L26.3076 19.2515L30.7483 23.6921Z" fill="url(#paint19_linear_1_11662)"/>
<path d="M3.11744 46.8824C2.60604 46.3703 2.01828 45.9407 1.37514 45.6089L0.301278 48.6129C0.0599902 49.288 0.711837 49.9399 1.38688 49.6986L4.39095 48.6247C4.05916 47.9815 3.62955 47.3938 3.11744 46.8824Z" fill="url(#paint20_linear_1_11662)"/>
<path d="M48.1793 1.82106L27.8421 22.1583L24.8672 19.1833C24.2187 18.5349 24.2187 17.4834 24.8672 16.835L26.6465 15.0557C27.0267 14.6754 27.3284 14.224 27.5342 13.7271C27.74 13.2303 27.8459 12.6977 27.8459 12.1599V9.94264C27.8459 8.19821 28.9509 6.64527 30.5991 6.07359L47.2296 0.305006C48.1503 -0.0144144 48.8684 1.13195 48.1793 1.82106Z" fill="url(#paint21_linear_1_11662)"/>
<path d="M48.179 1.82121L27.8418 22.1584L30.8167 25.1333C31.4652 25.7818 32.5166 25.7818 33.1651 25.1333L34.9444 23.354C35.3246 22.9738 35.7761 22.6721 36.2729 22.4663C36.7698 22.2605 37.3023 22.1546 37.8401 22.1546H40.0573C41.8018 22.1546 43.3547 21.0496 43.9264 19.4014L49.695 2.77083C50.0144 1.85023 48.868 1.13209 48.179 1.82121Z" fill="url(#paint22_linear_1_11662)"/>
<path d="M38.5977 12.3574L48.8129 2.1422C49.0672 1.8879 49.0974 1.47395 48.86 1.20373C48.7991 1.13415 48.7245 1.07781 48.641 1.03821C48.5574 0.998614 48.4666 0.976594 48.3742 0.973518C48.2818 0.970443 48.1897 0.986377 48.1037 1.02033C48.0177 1.05429 47.9396 1.10555 47.8742 1.17093L37.6666 11.3787C36.9982 12.047 36.0721 12.4129 35.1305 12.3298C34.2596 12.2529 33.3597 12.5826 32.7388 13.3193C31.859 14.3632 31.8729 15.9202 32.7695 16.9498C33.8459 18.1859 35.723 18.2343 36.8621 17.0952C37.4588 16.4985 37.7294 15.6996 37.6744 14.9194C37.6073 13.9687 37.9238 13.0313 38.5977 12.3574Z" fill="url(#paint23_linear_1_11662)"/>
<path d="M27.6734 13.335C27.4788 13.9848 27.126 14.5761 26.6465 15.0558L24.8672 16.8351C24.2187 17.4835 24.2187 18.535 24.8672 19.1834L27.8421 22.1584L30.8171 25.1333C31.4655 25.7818 32.517 25.7818 33.1654 25.1333L34.9447 23.354C35.4244 22.8745 36.0157 22.5216 36.6656 22.3272L27.6734 13.335Z" fill="url(#paint24_linear_1_11662)"/>
<path d="M29.69 30.3611L19.6387 20.3097L23.6444 16.304C24.1083 15.8401 24.8604 15.8401 25.3243 16.304L33.6957 24.6754C34.1596 25.1393 34.1596 25.8915 33.6957 26.3553L29.69 30.3611Z" fill="url(#paint25_linear_1_11662)"/>
</g>
<defs>
<linearGradient id="paint0_linear_1_11662" x1="22.4722" y1="0.768786" x2="37.9113" y2="16.2079" gradientUnits="userSpaceOnUse">
<stop stop-color="#FFF5D9"/>
<stop offset="1" stop-color="#FFCE47"/>
</linearGradient>
<linearGradient id="paint1_linear_1_11662" x1="4.62279" y1="16.2997" x2="11.5335" y2="23.2103" gradientUnits="userSpaceOnUse">
<stop stop-color="#6FA953"/>
<stop offset="1" stop-color="#43765A"/>
</linearGradient>
<linearGradient id="paint2_linear_1_11662" x1="15.8931" y1="4.21709" x2="24.9749" y2="13.299" gradientUnits="userSpaceOnUse">
<stop stop-color="#E4E08E"/>
<stop offset="1" stop-color="#6FA953"/>
</linearGradient>
<linearGradient id="paint3_linear_1_11662" x1="32.4573" y1="10.7537" x2="47.1974" y2="25.4939" gradientUnits="userSpaceOnUse">
<stop stop-color="#FFCE47"/>
<stop offset="1" stop-color="#FF9356"/>
</linearGradient>
<linearGradient id="paint4_linear_1_11662" x1="35.7318" y1="24.0552" x2="44.277" y2="32.6005" gradientUnits="userSpaceOnUse">
<stop stop-color="#FF9356"/>
<stop offset="1" stop-color="#FF755C"/>
</linearGradient>
<linearGradient id="paint5_linear_1_11662" x1="3.3915" y1="25.0954" x2="13.4465" y2="35.1504" gradientUnits="userSpaceOnUse">
<stop stop-color="#7ACBFF"/>
<stop offset="1" stop-color="#45A2E0"/>
</linearGradient>
<linearGradient id="paint6_linear_1_11662" x1="24.9836" y1="36.6602" x2="33.419" y2="45.0955" gradientUnits="userSpaceOnUse">
<stop stop-color="#FF755C"/>
<stop offset="1" stop-color="#FF4181"/>
</linearGradient>
<linearGradient id="paint7_linear_1_11662" x1="10.5841" y1="32.288" x2="30.9814" y2="52.6855" gradientUnits="userSpaceOnUse">
<stop stop-color="#FF4181"/>
<stop offset="1" stop-color="#843561"/>
</linearGradient>
<linearGradient id="paint8_linear_1_11662" x1="34.3247" y1="16.6076" x2="24.8226" y2="7.1055" gradientUnits="userSpaceOnUse">
<stop stop-color="#FFF5D9"/>
<stop offset="1" stop-color="#FFCE47"/>
</linearGradient>
<linearGradient id="paint9_linear_1_11662" x1="15.5502" y1="24.4075" x2="3.7731" y2="12.6304" gradientUnits="userSpaceOnUse">
<stop stop-color="#6FA953"/>
<stop offset="1" stop-color="#43765A"/>
</linearGradient>
<linearGradient id="paint10_linear_1_11662" x1="23.7864" y1="14.9296" x2="13.3054" y2="4.44861" gradientUnits="userSpaceOnUse">
<stop stop-color="#E4E08E"/>
<stop offset="1" stop-color="#6FA953"/>
</linearGradient>
<linearGradient id="paint11_linear_1_11662" x1="42.6031" y1="24.8859" x2="31.5386" y2="13.8214" gradientUnits="userSpaceOnUse">
<stop stop-color="#FFCE47"/>
<stop offset="1" stop-color="#FF9356"/>
</linearGradient>
<linearGradient id="paint12_linear_1_11662" x1="41.8403" y1="32.9829" x2="34.4484" y2="25.5909" gradientUnits="userSpaceOnUse">
<stop stop-color="#FF9356"/>
<stop offset="1" stop-color="#FF755C"/>
</linearGradient>
<linearGradient id="paint13_linear_1_11662" x1="18.4545" y1="36.1715" x2="4.80668" y2="22.5237" gradientUnits="userSpaceOnUse">
<stop stop-color="#7ACBFF"/>
<stop offset="1" stop-color="#45A2E0"/>
</linearGradient>
<linearGradient id="paint14_linear_1_11662" x1="33.3778" y1="42.2353" x2="23.4303" y2="32.2877" gradientUnits="userSpaceOnUse">
<stop stop-color="#FF755C"/>
<stop offset="1" stop-color="#FF4181"/>
</linearGradient>
<linearGradient id="paint15_linear_1_11662" x1="25.2238" y1="42.9416" x2="13.0837" y2="30.8015" gradientUnits="userSpaceOnUse">
<stop stop-color="#FF4181"/>
<stop offset="1" stop-color="#843561"/>
</linearGradient>
<linearGradient id="paint16_linear_1_11662" x1="35.0261" y1="35.0261" x2="27.9708" y2="27.9708" gradientUnits="userSpaceOnUse">
<stop stop-color="#843561" stop-opacity="0"/>
<stop offset="1" stop-color="#3A2F4D"/>
</linearGradient>
<linearGradient id="paint17_linear_1_11662" x1="1.41905" y1="38.5034" x2="11.469" y2="48.5533" gradientUnits="userSpaceOnUse">
<stop stop-color="#FFE0EA"/>
<stop offset="1" stop-color="#FFC0D5"/>
</linearGradient>
<linearGradient id="paint18_linear_1_11662" x1="5.28906" y1="30.981" x2="32.7493" y2="30.981" gradientUnits="userSpaceOnUse">
<stop stop-color="#FFCE47"/>
<stop offset="1" stop-color="#FF9356"/>
</linearGradient>
<linearGradient id="paint19_linear_1_11662" x1="22.8468" y1="35.4929" x2="12.7013" y2="25.3474" gradientUnits="userSpaceOnUse">
<stop stop-color="#FFCE47"/>
<stop offset="1" stop-color="#FF9356"/>
</linearGradient>
<linearGradient id="paint20_linear_1_11662" x1="1.49863" y1="47.8671" x2="4.06295" y2="50.4314" gradientUnits="userSpaceOnUse">
<stop stop-color="#2F73A0"/>
<stop offset="1" stop-color="#174461"/>
</linearGradient>
<linearGradient id="paint21_linear_1_11662" x1="35.9565" y1="8.9285" x2="37.28" y2="11.1027" gradientUnits="userSpaceOnUse">
<stop stop-color="#EDF5FF"/>
<stop offset="1" stop-color="#C7E9FF"/>
</linearGradient>
<linearGradient id="paint22_linear_1_11662" x1="39.3172" y1="13.1121" x2="41.1132" y2="16.326" gradientUnits="userSpaceOnUse">
<stop stop-color="#EDF5FF"/>
<stop offset="1" stop-color="#C7E9FF"/>
</linearGradient>
<linearGradient id="paint23_linear_1_11662" x1="42.711" y1="10.962" x2="39.6269" y2="7.87788" gradientUnits="userSpaceOnUse">
<stop stop-color="#2F73A0"/>
<stop offset="1" stop-color="#174461"/>
</linearGradient>
<linearGradient id="paint24_linear_1_11662" x1="31.0256" y1="18.9586" x2="29.3407" y2="20.6435" gradientUnits="userSpaceOnUse">
<stop stop-color="#7ACBFF" stop-opacity="0"/>
<stop offset="1" stop-color="#2F73A0"/>
</linearGradient>
<linearGradient id="paint25_linear_1_11662" x1="27.8671" y1="21.4181" x2="25.2442" y2="25.6308" gradientUnits="userSpaceOnUse">
<stop stop-color="#2F73A0"/>
<stop offset="1" stop-color="#174461"/>
</linearGradient>
<clipPath id="clip0_1_11662">
<rect width="49.5" height="49.5" fill="white" transform="translate(0.25 0.25)"/>
</clipPath>
</defs>
</svg>
