<svg width="51" height="57" viewBox="0 0 51 57" fill="none" xmlns="http://www.w3.org/2000/svg">
<g clip-path="url(#clip0_1_11648)">
<path d="M22.5982 57.0001C34.8027 57.0001 44.6964 47.1064 44.6964 34.9019C44.6964 22.6974 34.8027 12.8037 22.5982 12.8037C10.3937 12.8037 0.5 22.6974 0.5 34.9019C0.5 47.1064 10.3937 57.0001 22.5982 57.0001Z" fill="#8BC34A"/>
<path d="M22.5982 57.0001C25.5002 57.0001 28.3738 56.4285 31.0548 55.3179C33.7359 54.2074 36.172 52.5797 38.224 50.5277C40.276 48.4756 41.9038 46.0396 43.0143 43.3585C44.1248 40.6774 44.6964 37.8038 44.6964 34.9019H0.5C0.5 40.7627 2.8282 46.3834 6.97242 50.5277C11.1166 54.6719 16.7374 57.0001 22.5982 57.0001Z" fill="#FFEB3B"/>
<path d="M22.5977 0.750006V34.9018L46.7349 10.7645C43.5695 7.58779 39.8076 5.06776 35.6654 3.34916C31.5232 1.63056 27.0822 0.747266 22.5977 0.750006Z" fill="#E91E63"/>
<path d="M42.476 54.7801C45.0902 52.1718 47.1643 49.0734 48.5794 45.6624C49.9945 42.2513 50.7229 38.5947 50.7229 34.9018C50.7229 31.2089 49.9945 27.5522 48.5794 24.1412C47.1643 20.7302 45.0902 17.6318 42.476 15.0234L22.5977 34.9018L42.476 54.7801Z" fill="#03A9F4"/>
</g>
<defs>
<clipPath id="clip0_1_11648">
<rect width="50.3488" height="56.25" fill="white" transform="translate(0.5 0.75)"/>
</clipPath>
</defs>
</svg>
