<svg width="54" height="60" viewBox="0 0 54 60" fill="none" xmlns="http://www.w3.org/2000/svg">
<g clip-path="url(#clip0_1_11603)">
<path d="M53.0037 15.0005H26.8765L18.627 30.0005L26.8765 45.0005H53.0039L53.0037 15.0005Z" fill="#FF9A27"/>
<path d="M0.75 15.0005H26.8774V45.0005H0.75V15.0005Z" fill="#FFB820"/>
<path d="M26.8781 0.000488281L13.8145 15.0005L26.8778 30.0005L53.0053 15.0005L26.8781 0.000488281Z" fill="#FFB820"/>
<path d="M0.75 15.0005L26.8774 30.0005V0.000488281L0.75 15.0005Z" fill="#FFD06A"/>
<path d="M26.8781 30.0005L13.8145 45.0005L26.8778 60.0005L53.0053 45.0005L26.8781 30.0005Z" fill="#FFB820"/>
<path d="M0.75 45.0005L26.8774 60.0005V30.0005L0.75 45.0005Z" fill="#FFD06A"/>
<path d="M19.8066 19.0601L26.8777 51.8819L45.9338 40.9412V19.0602L19.8066 19.0601Z" fill="#5515A6"/>
<path d="M7.82031 19.0601V40.9413L26.8767 51.8819V19.0601H7.82031Z" fill="#9255E3"/>
<path d="M26.8776 8.11914L17.3496 19.0598L26.8775 30.0003L45.9339 19.0597L26.8776 8.11914Z" fill="#FFE7B5"/>
<path d="M7.82031 19.0597L26.8767 30.0003V8.11914L7.82031 19.0597Z" fill="white"/>
</g>
<defs>
<clipPath id="clip0_1_11603">
<rect width="52.3256" height="60.0001" fill="white" transform="translate(0.75 0.000488281)"/>
</clipPath>
</defs>
</svg>
