<svg width="20" height="20" viewBox="0 0 20 20" fill="none" xmlns="http://www.w3.org/2000/svg">
<path d="M12.825 4.34175L13.9999 6.69174C14.1583 7.01674 14.5833 7.32507 14.9416 7.39174L17.0666 7.74174C18.425 7.96674 18.7416 8.95007 17.7666 9.93341L16.1083 11.5917C15.8333 11.8667 15.675 12.4084 15.7666 12.8001L16.2416 14.8501C16.6166 16.4667 15.75 17.1001 14.325 16.2501L12.3333 15.0667C11.9749 14.8501 11.375 14.8501 11.0166 15.0667L9.02495 16.2501C7.59995 17.0917 6.73329 16.4667 7.10829 14.8501L7.5833 12.8001C7.67496 12.4167 7.51663 11.8751 7.24163 11.5917L5.5833 9.93341C4.6083 8.95841 4.92497 7.97507 6.2833 7.74174L8.40829 7.39174C8.76662 7.33341 9.19163 7.01674 9.34996 6.69174L10.525 4.34175C11.15 3.06675 12.1833 3.06675 12.825 4.34175Z" stroke="#1CCA81" stroke-width="1.5" stroke-linecap="round" stroke-linejoin="round"/>
<path d="M6.66663 4.16675H1.66663" stroke="#1CCA81" stroke-width="1.5" stroke-linecap="round" stroke-linejoin="round"/>
<path d="M4.16663 15.8333H1.66663" stroke="#1CCA81" stroke-width="1.5" stroke-linecap="round" stroke-linejoin="round"/>
<path d="M2.49996 10H1.66663" stroke="#1CCA81" stroke-width="1.5" stroke-linecap="round" stroke-linejoin="round"/>
</svg>
