<svg width="29" height="24" viewBox="0 0 29 24" fill="none" xmlns="http://www.w3.org/2000/svg">
<g clip-path="url(#clip0_1_7017)">
<path d="M28.3669 7.05607C28.3014 5.78085 28.0612 4.90416 27.7171 4.14449C27.3621 3.33812 26.816 2.61617 26.1004 2.01602C25.4014 1.40652 24.5549 0.932922 23.6265 0.632936C22.7365 0.337529 21.7206 0.131312 20.2352 0.0750879C18.7387 0.0141019 18.2636 0 14.468 0C10.6725 0 10.1974 0.0141019 8.70645 0.0703262C7.22104 0.126551 6.19983 0.332951 5.31515 0.628175C4.37565 0.932922 3.53471 1.40176 2.83563 2.01602C2.12567 2.61617 1.57422 3.34288 1.22457 4.13991C0.88047 4.90416 0.640262 5.77609 0.57477 7.0513C0.503731 8.33604 0.487305 8.7439 0.487305 12.0023C0.487305 15.2608 0.503731 15.6686 0.569223 16.9486C0.634715 18.2238 0.875137 19.1005 1.21924 19.8602C1.57422 20.6666 2.12567 21.3885 2.83563 21.9887C3.53471 22.5982 4.3812 23.0718 5.30961 23.3718C6.19983 23.6672 7.21549 23.8734 8.70111 23.9296C10.1919 23.986 10.6672 23.9999 14.4627 23.9999C18.2583 23.9999 18.7333 23.986 20.2243 23.9296C21.7097 23.8734 22.7309 23.6672 23.6156 23.3718C25.4944 22.7482 26.9798 21.4729 27.7062 19.8602C28.0501 19.096 28.2905 18.2238 28.356 16.9486C28.4215 15.6686 28.4379 15.2608 28.4379 12.0023C28.4379 8.7439 28.4323 8.33604 28.3669 7.05607ZM25.8494 16.8549C25.7892 18.027 25.5599 18.6599 25.3687 19.0819C24.899 20.1274 23.9324 20.9572 22.7145 21.3605C22.223 21.5246 21.4804 21.7215 20.1204 21.7729C18.6459 21.8293 18.2036 21.8433 14.4736 21.8433C10.7435 21.8433 10.2957 21.8293 8.82655 21.7729C7.46125 21.7215 6.72398 21.5246 6.23247 21.3605C5.6264 21.1682 5.07473 20.8635 4.62696 20.4649C4.16275 20.0758 3.80777 19.6069 3.58378 19.0866C3.39263 18.6647 3.1633 18.027 3.10336 16.8596C3.03765 15.5937 3.02144 15.2139 3.02144 12.0117C3.02144 8.80946 3.03765 8.42505 3.10336 7.16394C3.1633 5.99183 3.39263 5.3589 3.58378 4.93694C3.80777 4.41645 4.16275 3.94303 4.6325 3.55843C5.08561 3.15992 5.63174 2.85517 6.23802 2.66306C6.72953 2.49896 7.47234 2.30209 8.8321 2.25044C10.3066 2.19422 10.7491 2.18011 14.4789 2.18011C18.2145 2.18011 18.6568 2.19422 20.126 2.25044C21.4913 2.30209 22.2285 2.49896 22.72 2.66306C23.3261 2.85517 23.8778 3.15992 24.3255 3.55843C24.7898 3.94761 25.1447 4.41645 25.3687 4.93694C25.5599 5.3589 25.7892 5.99641 25.8494 7.16394C25.9148 8.42981 25.9313 8.80946 25.9313 12.0117C25.9313 15.2139 25.9148 15.589 25.8494 16.8549Z" fill="#FBFBFB"/>
<path d="M14.4686 5.83691C10.5039 5.83691 7.28711 8.59832 7.28711 12.0022C7.28711 15.406 10.5039 18.1674 14.4686 18.1674C18.4336 18.1674 21.6501 15.406 21.6501 12.0022C21.6501 8.59832 18.4336 5.83691 14.4686 5.83691ZM14.4686 16.0014C11.8965 16.0014 9.81016 14.2105 9.81016 12.0022C9.81016 9.79386 11.8965 8.00293 14.4686 8.00293C17.041 8.00293 19.1271 9.79386 19.1271 12.0022C19.1271 14.2105 17.041 16.0014 14.4686 16.0014V16.0014Z" fill="#FBFBFB"/>
<path d="M23.6112 5.59385C23.6112 6.38869 22.8604 7.03316 21.9344 7.03316C21.0085 7.03316 20.2578 6.38869 20.2578 5.59385C20.2578 4.79883 21.0085 4.15454 21.9344 4.15454C22.8604 4.15454 23.6112 4.79883 23.6112 5.59385V5.59385Z" fill="#FBFBFB"/>
</g>
<defs>
<clipPath id="clip0_1_7017">
<rect width="27.956" height="24" fill="white" transform="translate(0.439453)"/>
</clipPath>
</defs>
</svg>
