<svg width="20" height="20" viewBox="0 0 20 20" fill="none" xmlns="http://www.w3.org/2000/svg">
<path d="M15.1166 18.0166C14.3833 18.2333 13.5166 18.3333 12.5 18.3333H7.49997C6.4833 18.3333 5.61663 18.2333 4.8833 18.0166C5.06663 15.85 7.29163 14.1416 9.99997 14.1416C12.7083 14.1416 14.9333 15.85 15.1166 18.0166Z" stroke="#1CCA81" stroke-width="1.5" stroke-linecap="round" stroke-linejoin="round"/>
<path d="M12.5 1.6665H7.49996C3.33329 1.6665 1.66663 3.33317 1.66663 7.49984V12.4998C1.66663 15.6498 2.61663 17.3748 4.88329 18.0165C5.06663 15.8498 7.29163 14.1415 9.99996 14.1415C12.7083 14.1415 14.9333 15.8498 15.1166 18.0165C17.3833 17.3748 18.3333 15.6498 18.3333 12.4998V7.49984C18.3333 3.33317 16.6666 1.6665 12.5 1.6665ZM9.99996 11.8082C8.34996 11.8082 7.01662 10.4665 7.01662 8.81652C7.01662 7.16652 8.34996 5.83317 9.99996 5.83317C11.65 5.83317 12.9833 7.16652 12.9833 8.81652C12.9833 10.4665 11.65 11.8082 9.99996 11.8082Z" stroke="#1CCA81" stroke-width="1.5" stroke-linecap="round" stroke-linejoin="round"/>
<path d="M12.9834 8.81684C12.9834 10.4668 11.6501 11.8085 10.0001 11.8085C8.35006 11.8085 7.01672 10.4668 7.01672 8.81684C7.01672 7.16684 8.35006 5.8335 10.0001 5.8335C11.6501 5.8335 12.9834 7.16684 12.9834 8.81684Z" stroke="#1CCA81" stroke-width="1.5" stroke-linecap="round" stroke-linejoin="round"/>
</svg>
