<svg width="60" height="51" viewBox="0 0 60 51" fill="none" xmlns="http://www.w3.org/2000/svg">
<g clip-path="url(#clip0_1_10243)">
<path d="M35.3846 50.0769H56.9231C58.6197 50.0769 60 48.6966 60 47V27C60 25.3034 58.6197 23.9231 56.9231 23.9231L44.1746 23.9231C45.6165 16.8472 51.9374 11.6154 59.2308 11.6154C59.4348 11.6154 59.6304 11.5343 59.7747 11.3901C59.919 11.2458 60 11.0502 60 10.8462V0.846169C60 0.642155 59.919 0.446499 59.7747 0.302242C59.6304 0.157982 59.4348 0.0769348 59.2308 0.0769348C44.3854 0.0769348 32.3077 12.1546 32.3077 27V47C32.3077 48.6966 33.688 50.0769 35.3846 50.0769ZM33.8462 27C33.8462 13.26 44.8186 2.03478 58.4615 1.62678V10.0943C54.6385 10.2672 50.9877 11.7348 48.1088 14.2562C45.0638 16.9231 43.0718 20.5906 42.4994 24.5831C42.4837 24.6922 42.4916 24.8035 42.5226 24.9093C42.5537 25.0151 42.6071 25.113 42.6794 25.1963C42.7516 25.2796 42.8409 25.3464 42.9412 25.3922C43.0415 25.438 43.1505 25.4616 43.2608 25.4615L56.9231 25.4615C57.7714 25.4615 58.4615 26.1517 58.4615 27V47C58.4615 47.8483 57.7714 48.5384 56.9231 48.5384H35.3846C34.5363 48.5384 33.8462 47.8483 33.8462 47V27ZM3.07692 50.0769H24.6154C26.312 50.0769 27.6923 48.6966 27.6923 47V27C27.6923 25.3034 26.312 23.9231 24.6154 23.9231L11.8663 23.9231C13.3082 16.8472 19.6292 11.6154 26.9231 11.6154C27.1271 11.6154 27.3227 11.5343 27.467 11.3901C27.6113 11.2458 27.6923 11.0502 27.6923 10.8462V0.846169C27.6923 0.642155 27.6113 0.446499 27.467 0.302242C27.3227 0.157982 27.1271 0.0769348 26.9231 0.0769348C12.0777 0.0769348 -3.8147e-06 12.1546 -3.8147e-06 27V47C-3.8147e-06 48.6966 1.38015 50.0769 3.07692 50.0769ZM1.53846 27C1.53846 13.26 12.5109 2.03478 26.1538 1.62678V10.0943C22.3307 10.2672 18.6798 11.7348 15.8008 14.2562C12.7557 16.9231 10.7635 20.5906 10.1911 24.5831C10.1754 24.6922 10.1834 24.8034 10.2145 24.9092C10.2456 25.015 10.299 25.1128 10.3712 25.1961C10.4434 25.2794 10.5327 25.3462 10.633 25.392C10.7333 25.4378 10.8422 25.4615 10.9525 25.4615L24.6154 25.4615C25.4637 25.4615 26.1538 26.1517 26.1538 27V47C26.1538 47.8483 25.4637 48.5384 24.6154 48.5384H3.07692C2.22861 48.5384 1.53846 47.8483 1.53846 47V27Z" fill="#1CCA81"/>
</g>
<defs>
<clipPath id="clip0_1_10243">
<rect width="60" height="50.1538" fill="white" transform="matrix(-1 0 0 -1 60 50.1538)"/>
</clipPath>
</defs>
</svg>
