<svg width="80" height="80" viewBox="0 0 80 80" fill="none" xmlns="http://www.w3.org/2000/svg">
<circle cx="40" cy="40" r="40" fill="#1CCA81"/>
<path opacity="0.6" d="M49.5386 42.1249C49.0366 42.6267 49.0393 43.4446 49.5426 43.9477L49.9994 44.4044C50.0844 44.4894 50.0844 44.6248 49.9994 44.7085C49.9144 44.7921 49.7803 44.7908 49.6953 44.7085L48.6289 43.6424C48.123 43.1366 47.3076 43.1352 46.8056 43.6384C46.3036 44.1416 46.3063 44.9581 46.8096 45.4612L47.8759 46.5273C47.9609 46.6123 47.9609 46.7477 47.8759 46.8313C47.791 46.915 47.6568 46.9136 47.5718 46.8313L45.8959 45.1559C45.39 44.65 44.5746 44.6487 44.0726 45.1519C43.5706 45.6551 43.5733 46.4715 44.0766 46.9747L45.7525 48.6502C45.8375 48.7351 45.8375 48.8705 45.7525 48.9542C45.6675 49.0378 45.5334 49.0365 45.4484 48.9542L39.503 43.0104C38.997 42.5046 38.1817 42.5033 37.6797 43.0064C37.1777 43.5096 37.1804 44.3261 37.6837 44.8293L44.8375 51.9812C43.9 51.8351 42.3223 51.7727 41.3529 52.7419C40.4432 53.6513 40.4671 54.2793 40.75 54.5647C41.5189 55.3334 42.1125 54.1186 45.6157 55.7928C49.1189 57.4669 51.3712 57.3302 52.9117 55.814L55.0338 53.6925C55.0232 53.7031 55.0444 53.6818 55.0338 53.6925C57.1904 51.5364 57.8093 48.5878 55.6327 46.4105C55.6287 46.4065 55.6261 46.4038 55.6221 46.3998L51.3539 42.1329C50.8586 41.6244 50.0406 41.6217 49.5386 42.1249Z" fill="white"/>
<path d="M55.5662 25.6144C48.1294 21.4363 43.1004 22.9658 39.9982 25.3873C36.896 22.9644 31.8669 21.435 24.4302 25.6144C23.5524 26.1082 23 27.0429 23 28.0784V49.4744C23 50.3519 23.3971 51.1737 24.0903 51.7114C24.7848 52.2491 25.6626 52.4336 26.5125 52.2212C31.187 51.0463 35.1391 51.0171 38.2838 52.1508C38.5387 51.6835 38.8933 51.2016 39.3608 50.7343C39.3887 50.6918 39.4311 50.6493 39.4736 50.6214L37.9717 49.1199C36.4697 48.695 34.8416 48.4972 33.0993 48.4972C30.8617 48.4972 28.4394 48.8225 25.8326 49.4744L25.8193 28.0771C31.0888 25.1178 35.2679 25.0886 38.5826 27.9218V39.8026C39.6025 39.788 40.6223 40.1704 41.4152 40.9218V27.9231C44.7298 25.0913 48.909 25.1192 54.1638 28.0784L54.1784 40.9364L56.9964 43.755V28.0784C56.9964 27.0588 56.444 26.1082 55.5662 25.6144Z" fill="white"/>
</svg>
