<svg width="80" height="80" viewBox="0 0 80 80" fill="none" xmlns="http://www.w3.org/2000/svg">
<circle cx="40" cy="40" r="40" fill="url(#paint0_linear_1_4193)"/>
<path opacity="0.6" d="M48.5009 48.4062L47.8431 46.9408C47.7641 46.7809 47.7641 46.5944 47.8431 46.4345L48.5009 44.9691C48.7904 44.3296 48.8167 43.5836 48.5536 42.9175C48.2904 42.2514 47.7378 41.7185 47.0536 41.452L45.58 40.8925C45.4221 40.8392 45.2906 40.706 45.2379 40.5461L44.6853 39.054C44.4222 38.3613 43.8959 37.8284 43.238 37.5619C42.5802 37.2688 41.8433 37.2955 41.2118 37.5886L39.7645 38.2547C39.6066 38.3346 39.4224 38.3346 39.2645 38.2547L37.8172 37.5886C37.1593 37.2955 36.4225 37.2688 35.7647 37.5619C35.1068 37.8284 34.5805 38.3879 34.3437 39.054L33.7911 40.5461C33.7121 40.706 33.6069 40.8392 33.4227 40.8925L31.9491 41.452C31.2912 41.7185 30.7386 42.2514 30.4754 42.9175C30.2123 43.5836 30.2123 44.3296 30.5018 44.9957L31.1596 46.4612C31.2386 46.621 31.2386 46.8076 31.1596 46.9674L30.5018 48.4062C30.2123 49.0723 30.2123 49.8184 30.4754 50.4845C30.7386 51.1506 31.2912 51.6835 31.9491 51.9233L33.4227 52.4828C33.5806 52.5361 33.7121 52.6693 33.7648 52.8292L34.3174 54.3213C34.5542 54.9874 35.0805 55.5469 35.7384 55.8134C36.0541 55.9466 36.3962 55.9999 36.712 55.9999C37.0804 55.9999 37.4488 55.92 37.7909 55.7601L39.2382 55.094C39.3961 55.0141 39.5803 55.0141 39.7382 55.094L41.1855 55.7601C41.8433 56.0532 42.5802 56.0798 43.238 55.7867C43.8959 55.5203 44.4222 54.9608 44.659 54.2947L45.2116 52.8026C45.2642 52.6427 45.3958 52.5095 45.5537 52.4562L47.0273 51.8967C47.6852 51.6569 48.2378 51.124 48.5009 50.4579C48.8167 49.8184 48.7904 49.0723 48.5009 48.4062ZM39.5013 51.3638C36.9488 51.3638 34.8963 49.2589 34.8963 46.701C34.8963 44.1431 36.9751 42.0382 39.5013 42.0382C42.0276 42.0382 44.1064 44.1431 44.1064 46.701C44.1064 49.2589 42.0539 51.3638 39.5013 51.3638Z" fill="white"/>
<path d="M51.7144 24H46.1094V35.5637L51.346 34.1249C52.9249 33.6986 54.0038 32.2331 54.0038 30.5812V26.3447C54.0038 25.0391 52.9775 24 51.7144 24Z" fill="white"/>
<path d="M32.9207 24H27.3157C26.0263 24 25 25.0391 25 26.3447V30.5812C25 32.2331 26.1052 33.6986 27.6578 34.1249L32.8944 35.5637V24H32.9207Z" fill="white"/>
<path d="M44.1299 36.0167V24H34.8935V36.0167C34.8935 36.0433 34.8672 36.0699 34.8672 36.0966L39.2354 37.3222C39.3144 37.3489 39.4196 37.3489 39.4986 37.3489C39.5775 37.3489 39.6828 37.3489 39.7617 37.3222L44.1299 36.1232C44.1299 36.0699 44.1299 36.0433 44.1299 36.0167Z" fill="white"/>
<defs>
<linearGradient id="paint0_linear_1_4193" x1="1.5503e-07" y1="40" x2="72.7031" y2="53.4733" gradientUnits="userSpaceOnUse">
<stop stop-color="#0063F4"/>
<stop offset="1" stop-color="#00F0AA"/>
</linearGradient>
</defs>
</svg>
