<svg width="80" height="80" viewBox="0 0 80 80" fill="none" xmlns="http://www.w3.org/2000/svg">
<circle cx="40" cy="40" r="40" fill="#8A47CB"/>
<path opacity="0.6" d="M47.7061 32.2935C47.316 31.9035 46.6817 31.9035 46.2917 32.2935L40.2911 38.294C40.004 38.5812 39.9225 39.0098 40.0768 39.3827C40.2311 39.7556 40.5955 39.9999 41.0026 39.9999H49.6691C50.222 39.9999 50.6678 39.5499 50.6678 39.0012C50.6678 38.4526 50.2177 38.0026 49.6691 38.0026H46.6688C46.6688 37.1154 46.3474 36.2753 45.7902 35.6281L47.7061 33.7079C48.0961 33.3136 48.0961 32.6835 47.7061 32.2935ZM44.663 37.9983H43.4114L44.3629 37.0468C44.5558 37.3211 44.663 37.6511 44.663 37.9983Z" fill="white"/>
<path opacity="0.6" d="M51.9987 26.666H38.6689C37.9317 26.666 37.3359 27.2661 37.3359 27.999C37.3359 28.7319 37.936 29.332 38.6689 29.332H52.003C52.7402 29.332 53.3359 29.932 53.3359 30.6649V41.3288C53.3359 42.066 52.7359 42.6617 52.003 42.6617H41.3349C40.5977 42.6617 40.0019 43.2618 40.0019 43.9947C40.0019 44.7276 40.5977 45.3277 41.3349 45.3277H51.9987C54.206 45.3277 55.9976 43.5318 55.9976 41.3245V30.6649C56.0019 28.4576 54.206 26.666 51.9987 26.666Z" fill="white"/>
<path d="M30.663 31.9979C32.8715 31.9979 34.6619 30.2075 34.6619 27.9989C34.6619 25.7904 32.8715 24 30.663 24C28.4544 24 26.6641 25.7904 26.6641 27.9989C26.6641 30.2075 28.4544 31.9979 30.663 31.9979Z" fill="white"/>
<path d="M32.3322 33.3311H28.9976C26.2459 33.3311 24 35.5727 24 38.3329V43.8406C24 44.7321 24.4929 45.5293 25.2901 45.9279L26.4817 46.5237C26.5974 46.5794 26.666 46.6951 26.666 46.8237V53.6643C26.666 54.9501 27.7118 56.0002 29.0019 56.0002H32.3365C33.6223 56.0002 34.6681 54.9544 34.6724 53.6643V46.8237C34.6724 46.6994 34.741 46.5837 34.8567 46.5237L36.0482 45.9279C36.8454 45.5293 37.3383 44.7321 37.3383 43.8406V38.3329C37.334 35.5727 35.0881 33.3311 32.3322 33.3311Z" fill="white"/>
</svg>
